<?xml version="1.0" standalone="no"?>
<!DOCTYPE svg PUBLIC "-//W3C//DTD SVG 20010904//EN"
 "http://www.w3.org/TR/2001/REC-SVG-20010904/DTD/svg10.dtd">
<svg version="1.0" xmlns="http://www.w3.org/2000/svg"
 width="256.000000pt" height="256.000000pt" viewBox="0 0 256.000000 256.000000"
 preserveAspectRatio="xMidYMid meet">

<g transform="translate(0.000000,256.000000) scale(0.100000,-0.100000)"
fill="#000000" stroke="none">
<path d="M115 2511 c-11 -5 -31 -21 -45 -36 l-25 -27 0 -1169 0 -1169 33 -32
32 -33 1170 0 1170 0 32 33 33 32 0 1170 0 1170 -33 32 -32 33 -1158 2 c-636
1 -1166 -2 -1177 -6z m2313 -83 c8 -8 12 -58 12 -160 l0 -148 -1160 0 -1160 0
0 148 c0 102 4 152 12 160 17 17 2279 17 2296 0z m12 -1336 c0 -724 -3 -951
-12 -960 -17 -17 -2279 -17 -2296 0 -9 9 -12 236 -12 960 l0 948 1160 0 1160
0 0 -948z"/>
<path d="M225 2335 c-50 -49 -15 -135 55 -135 41 0 80 39 80 80 0 41 -39 80
-80 80 -19 0 -40 -9 -55 -25z"/>
<path d="M465 2335 c-16 -15 -25 -36 -25 -55 0 -19 9 -40 25 -55 49 -50 135
-15 135 55 0 41 -39 80 -80 80 -19 0 -40 -9 -55 -25z"/>
<path d="M705 2335 c-16 -15 -25 -36 -25 -55 0 -19 9 -40 25 -55 15 -16 36
-25 55 -25 19 0 40 9 55 25 16 15 25 36 25 55 0 19 -9 40 -25 55 -15 16 -36
25 -55 25 -19 0 -40 -9 -55 -25z"/>
<path d="M600 1712 c0 -117 4 -172 12 -180 8 -8 49 -12 120 -12 l108 0 0 40 0
40 -80 0 -80 0 0 140 0 140 -40 0 -40 0 0 -168z"/>
<path d="M892 1868 c-17 -17 -17 -319 0 -336 17 -17 239 -17 256 0 17 17 17
319 0 336 -8 8 -51 12 -128 12 -77 0 -120 -4 -128 -12z m188 -168 l0 -100 -60
0 -60 0 0 100 0 100 60 0 60 0 0 -100z"/>
<path d="M1212 1868 c-17 -17 -17 -319 0 -336 17 -17 279 -17 296 0 16 16 16
160 0 176 -7 7 -40 12 -80 12 l-68 0 0 -40 0 -40 40 0 c33 0 40 -3 40 -20 0
-18 -7 -20 -80 -20 l-80 0 0 100 0 100 80 0 c73 0 80 -2 80 -20 0 -17 7 -20
40 -20 l40 0 0 48 c0 26 -5 53 -12 60 -8 8 -56 12 -148 12 -92 0 -140 -4 -148
-12z"/>
<path d="M1560 1700 l0 -180 40 0 40 0 0 180 0 180 -40 0 -40 0 0 -180z"/>
<path d="M1692 1868 c-8 -8 -12 -60 -12 -180 l0 -168 40 0 39 0 3 94 3 94 66
-91 c65 -92 88 -109 114 -87 12 10 15 46 15 181 l0 169 -40 0 -39 0 -3 -94 -3
-94 -65 91 c-65 91 -92 111 -118 85z"/>
<path d="M389 1337 c-24 -13 -57 -43 -74 -66 -25 -36 -30 -52 -30 -105 0 -53
5 -70 32 -114 18 -29 28 -52 23 -52 -20 0 -83 -66 -108 -114 -25 -48 -27 -60
-30 -214 -3 -117 0 -167 8 -177 18 -22 522 -22 540 0 8 10 11 60 8 177 -3 154
-5 166 -30 214 -25 48 -88 114 -108 114 -5 0 5 23 23 52 27 44 32 61 32 114 0
53 -5 69 -30 105 -38 54 -103 89 -165 89 -30 0 -63 -8 -91 -23z m175 -96 c26
-27 31 -39 31 -81 0 -43 -5 -54 -33 -82 -28 -28 -39 -33 -82 -33 -43 0 -54 5
-82 33 -28 28 -33 39 -33 81 0 52 25 92 70 112 37 16 96 3 129 -30z m26 -315
c21 -13 48 -42 61 -63 22 -34 24 -52 27 -170 l4 -133 -201 0 -201 0 0 113 c0
61 5 129 11 150 13 46 76 113 121 126 53 16 135 6 178 -23z"/>
<path d="M932 1268 c-17 -17 -17 -279 0 -296 17 -17 1319 -17 1336 0 17 17 17
279 0 296 -17 17 -1319 17 -1336 0z m1268 -148 l0 -80 -600 0 -600 0 0 80 0
80 600 0 600 0 0 -80z"/>
<path d="M932 788 c-17 -17 -17 -279 0 -296 17 -17 1319 -17 1336 0 17 17 17
279 0 296 -17 17 -1319 17 -1336 0z m1268 -148 l0 -80 -600 0 -600 0 0 80 0
80 600 0 600 0 0 -80z"/>
</g>
</svg>
