<svg xmlns="http://www.w3.org/2000/svg" enable-background="new 0 0 64 64" viewBox="0 0 64 64" id="checklist"><path d="M62.57,63.45H15.04c-0.79,0-1.43-0.64-1.43-1.43V14.48c0-0.79,0.64-1.43,1.43-1.43h47.53c0.79,0,1.43,0.64,1.43,1.43
			v47.53C64,62.81,63.36,63.45,62.57,63.45z M16.47,60.58h44.67V15.92H16.47V60.58z"></path><path d="M25.93 36.46c-.38 0-.75-.15-1.02-.43l-5.22-5.34c-.55-.57-.54-1.47.02-2.03.57-.55 1.47-.54 2.03.02l4.12 4.21 9.06-10.81c.51-.61 1.41-.69 2.02-.18.61.51.69 1.41.18 2.02L27.03 35.95c-.26.31-.64.5-1.04.51C25.96 36.46 25.95 36.46 25.93 36.46zM56.9 32.77H38.92c-.79 0-1.43-.64-1.43-1.43 0-.79.64-1.43 1.43-1.43H56.9c.79 0 1.43.64 1.43 1.43C58.33 32.13 57.69 32.77 56.9 32.77zM25.93 54.92c-.38 0-.75-.15-1.02-.43l-5.22-5.34c-.55-.57-.54-1.47.02-2.03.57-.55 1.47-.54 2.03.02l4.12 4.21 9.06-10.81c.51-.6 1.41-.69 2.02-.18.61.51.69 1.41.18 2.02L27.03 54.41c-.26.31-.64.5-1.04.51C25.96 54.92 25.95 54.92 25.93 54.92zM56.9 51.23H38.92c-.79 0-1.43-.64-1.43-1.43s.64-1.43 1.43-1.43H56.9c.79 0 1.43.64 1.43 1.43S57.69 51.23 56.9 51.23z"></path><g><path d="M10.18,30.45H1.43C0.64,30.45,0,29.81,0,29.02V1.99c0-0.79,0.64-1.43,1.43-1.43h28.18c0.79,0,1.43,0.64,1.43,1.43v7.77
			c0,0.79-0.64,1.43-1.43,1.43c-0.79,0-1.43-0.64-1.43-1.43V3.42H2.87v24.17h7.31c0.79,0,1.43,0.64,1.43,1.43
			C11.61,29.81,10.97,30.45,10.18,30.45z"></path></g></svg>