<?xml version="1.0" standalone="no"?>
<!DOCTYPE svg PUBLIC "-//W3C//DTD SVG 20010904//EN"
 "http://www.w3.org/TR/2001/REC-SVG-20010904/DTD/svg10.dtd">
<svg version="1.0" xmlns="http://www.w3.org/2000/svg"
 width="256.000000pt" height="256.000000pt" viewBox="0 0 256.000000 256.000000"
 preserveAspectRatio="xMidYMid meet">

<g transform="translate(0.000000,256.000000) scale(0.100000,-0.100000)"
fill="#000000" stroke="none">
<path d="M1253 2380 c-35 -15 -55 -55 -61 -125 l-5 -65 -354 0 -354 0 -24 -25
c-34 -33 -34 -87 0 -120 18 -19 35 -25 69 -25 l46 0 2 -467 3 -468 700 -3
c385 -1 710 0 723 3 l22 5 0 465 0 465 44 0 c54 0 96 34 96 79 0 90 -5 91
-420 91 l-350 0 0 69 c0 58 -4 74 -22 96 -25 28 -79 40 -115 25z m77 -69 c5
-11 10 -42 10 -70 l0 -51 -45 0 -45 0 0 58 c0 32 5 63 12 70 18 18 56 14 68
-7z m770 -206 l0 -25 -804 0 c-635 0 -805 3 -809 13 -13 37 -20 37 809 37
l804 0 0 -25z m-140 -525 l0 -440 -665 0 -665 0 0 440 0 440 665 0 665 0 0
-440z"/>
<path d="M1406 1944 c-8 -21 16 -44 48 -44 19 0 18 -3 -9 -25 -90 -73 -318
-174 -477 -211 -80 -18 -104 -38 -73 -60 46 -34 390 94 555 206 l58 39 6 -25
c5 -19 12 -25 29 -22 20 3 22 10 25 67 2 35 -1 68 -6 73 -5 5 -40 12 -79 15
-62 5 -71 4 -77 -13z"/>
<path d="M1527 1727 c-16 -11 -17 -34 -15 -227 l3 -215 68 -3 c42 -2 74 2 83
9 11 9 14 53 14 220 0 196 -1 209 -19 219 -27 14 -114 13 -134 -3z m93 -217
l0 -170 -30 0 -30 0 0 163 c0 90 3 167 7 170 3 4 17 7 30 7 l23 0 0 -170z"/>
<path d="M1226 1605 c-3 -9 -6 -81 -6 -160 0 -110 3 -145 14 -154 9 -7 41 -11
83 -9 l68 3 0 165 0 165 -76 3 c-63 2 -78 0 -83 -13z m114 -155 l0 -110 -30 0
-30 0 0 110 0 110 30 0 30 0 0 -110z"/>
<path d="M952 1502 c-9 -6 -12 -36 -10 -113 l3 -104 80 0 80 0 3 99 c2 64 -1
103 -9 112 -13 15 -125 20 -147 6z m98 -107 c0 -52 -1 -55 -25 -55 -24 0 -25
3 -25 55 0 52 1 55 25 55 24 0 25 -3 25 -55z"/>
<path d="M417 960 c-44 -13 -92 -55 -112 -96 -21 -45 -22 -121 -2 -160 92
-176 347 -117 347 81 0 122 -117 210 -233 175z m108 -66 c88 -41 94 -158 13
-217 -33 -25 -98 -26 -133 -3 -32 21 -65 73 -65 104 0 40 28 91 62 112 40 24
79 25 123 4z"/>
<path d="M1236 955 c-103 -36 -152 -144 -111 -242 20 -48 41 -71 87 -94 110
-56 249 17 265 140 11 84 -51 177 -134 200 -48 14 -59 13 -107 -4z m125 -68
c109 -73 59 -231 -72 -229 -21 0 -47 6 -59 12 -53 28 -78 130 -44 179 23 33
74 61 110 61 17 0 46 -10 65 -23z"/>
<path d="M2062 959 c-48 -14 -107 -77 -120 -130 -44 -177 169 -305 302 -181
79 74 73 221 -11 280 -57 39 -109 49 -171 31z m113 -65 c88 -41 94 -158 13
-217 -33 -25 -98 -26 -133 -3 -32 21 -65 73 -65 104 0 40 28 91 62 112 40 24
79 25 123 4z"/>
<path d="M250 520 c-74 -28 -113 -48 -133 -70 l-27 -30 0 -165 0 -165 380 0
380 0 0 158 c0 214 0 214 -175 277 l-93 34 -55 -40 c-31 -21 -58 -39 -60 -39
-3 0 -27 18 -53 40 -27 22 -51 40 -54 39 -3 0 -52 -18 -110 -39z m160 -70 c26
-22 52 -40 57 -40 5 0 34 18 63 40 29 22 61 40 69 40 9 -1 52 -15 96 -33 56
-23 83 -39 92 -57 8 -16 13 -68 13 -142 l0 -118 -45 0 -45 0 0 110 c0 90 -3
112 -15 116 -35 14 -45 -14 -45 -122 l0 -104 -182 2 -183 3 -5 110 c-5 102 -7
110 -25 110 -19 0 -20 -8 -23 -112 l-3 -113 -44 0 -45 0 0 124 c0 105 3 127
18 147 18 21 146 75 186 78 10 0 40 -17 66 -39z"/>
<path d="M1085 521 c-127 -46 -139 -53 -159 -95 -14 -29 -16 -62 -14 -183 l3
-148 380 0 380 0 3 145 c3 205 -7 222 -177 286 l-93 35 -54 -41 c-29 -22 -56
-40 -59 -40 -4 0 -25 15 -48 33 -23 19 -46 36 -52 39 -5 3 -55 -10 -110 -31z
m150 -71 c28 -22 54 -40 58 -40 4 0 32 18 61 40 29 22 59 40 67 40 26 0 154
-53 177 -73 21 -19 22 -28 22 -149 l0 -128 -40 0 -40 0 0 104 c0 108 -10 136
-45 122 -12 -4 -15 -26 -15 -116 l0 -110 -185 0 -185 0 0 110 c0 90 -3 112
-15 116 -35 14 -45 -14 -45 -122 l0 -104 -40 0 -40 0 0 128 c0 87 4 134 13
145 12 16 157 76 187 76 8 1 38 -17 65 -39z"/>
<path d="M1900 520 c-74 -28 -113 -48 -132 -70 l-28 -30 0 -165 0 -165 380 0
380 0 0 158 c0 214 0 214 -175 277 l-93 34 -55 -40 c-31 -21 -58 -39 -60 -39
-3 0 -27 18 -53 40 -27 22 -51 40 -54 39 -3 0 -52 -18 -110 -39z m162 -71 c55
-47 57 -47 136 13 l43 32 71 -24 c138 -48 141 -54 136 -225 l-3 -100 -42 -3
-43 -3 0 111 c0 89 -3 112 -15 116 -35 14 -45 -14 -45 -122 l0 -104 -182 2
-183 3 -5 110 c-5 102 -7 110 -25 110 -19 0 -20 -8 -23 -112 l-3 -113 -44 0
-45 0 0 124 c0 105 3 127 18 147 18 21 146 75 186 78 10 0 40 -18 68 -40z"/>
</g>
</svg>
