<svg xmlns="http://www.w3.org/2000/svg" enable-background="new 0 0 64 64" viewBox="0 0 64 64" id="close"><g transform="translate(378 278)"><path fill="#134563" d="M-345.9-222.1c-13.2 0-23.9-10.7-23.9-23.9s10.7-23.9 23.9-23.9S-322-259.2-322-246c0 13.1-10.7 23.9-23.9 23.9zm0-45.3c-11.7 0-21.3 9.6-21.3 21.3 0 11.7 9.6 21.3 21.3 21.3s21.3-9.6 21.3-21.3c0-11.7-9.6-21.3-21.3-21.3z"></path><path fill="#134563" d="m-356.3-233.8-1.9-1.9 22.6-22.6 1.9 1.9-22.6 22.6"></path><path fill="#134563" d="m-335.6-233.8-22.6-22.6 1.9-1.9 22.6 22.6-1.9 1.9"></path></g></svg>