<?xml version="1.0" encoding="UTF-8"?>
<svg version="1.1" xmlns="http://www.w3.org/2000/svg" width="256" height="256">
<path d="M0 0 C0.64535013 -0.00155999 1.29070026 -0.00311998 1.95560646 -0.00472724 C4.13367574 -0.00873886 6.3116762 -0.005547 8.48974609 -0.00241089 C10.04490195 -0.00376486 11.60005748 -0.00554477 13.1552124 -0.00772095 C17.39063039 -0.01229579 21.62602413 -0.01050551 25.86144257 -0.00734186 C30.28393115 -0.00481852 34.70641759 -0.00715573 39.12890625 -0.00872803 C46.55713272 -0.0105498 53.98534926 -0.00814321 61.41357422 -0.00338745 C70.01423501 0.00205518 78.61487209 0.00029253 87.2155323 -0.00521386 C94.58620978 -0.00974477 101.9568801 -0.01039564 109.32755852 -0.00777519 C113.73573063 -0.00621229 118.14389158 -0.00601899 122.55206299 -0.00931168 C126.69536708 -0.01219008 130.83864047 -0.01021528 134.98194122 -0.00441742 C136.50700072 -0.00308965 138.03206278 -0.00348422 139.55712128 -0.00568008 C141.63023871 -0.00839095 143.70325621 -0.00501129 145.77636719 0 C146.93929291 0.00037703 148.10221863 0.00075405 149.30038452 0.0011425 C151.88818359 0.12698364 151.88818359 0.12698364 152.88818359 1.12698364 C153.06631781 3.23142524 153.17484445 5.3417653 153.25741577 7.45211792 C153.28437613 8.12107031 153.31133649 8.7900227 153.33911383 9.47924638 C153.42794312 11.73892827 153.50877346 13.99881211 153.58886719 16.25881958 C153.61832932 17.04839806 153.64779144 17.83797653 153.67814636 18.65148163 C154.26273372 34.35944452 154.61380189 50.07163218 154.88736534 65.78780746 C155.06578435 75.78435694 155.3131777 85.76931234 155.734375 95.75881958 C158.88581674 172.24347922 158.88581674 172.24347922 140.4997673 192.6432991 C124.14259559 208.86912419 103.86135445 211.85604174 81.58588028 211.7809906 C74.02722974 211.6908097 66.48756056 211.29944693 58.94312012 210.84859324 C51.84799777 210.43229992 44.7515253 210.24783379 37.64700651 210.07418323 C26.62936307 209.7992188 15.62005946 209.40763705 4.61376953 208.82766724 C2.99517029 208.74586716 2.99517029 208.74586716 1.34387207 208.66241455 C0.36944153 208.60756897 -0.60498901 208.55272339 -1.60894775 208.49621582 C-2.45963963 208.44908133 -3.3103315 208.40194683 -4.18680191 208.35338402 C-6.11181641 208.12698364 -6.11181641 208.12698364 -7.11181641 207.12698364 C-7.21185684 204.47381124 -7.24621873 201.84660184 -7.23880005 199.19290161 C-7.24036004 198.35154097 -7.24192003 197.51018032 -7.24352729 196.6433239 C-7.24754092 193.80192224 -7.24434625 190.96057327 -7.24121094 188.11917114 C-7.24256482 186.091115 -7.24434467 184.06305909 -7.246521 182.03500366 C-7.25109691 176.51037244 -7.24930512 170.9857598 -7.24614191 165.46112823 C-7.24361912 159.69333341 -7.24595562 153.92554024 -7.24752808 148.15774536 C-7.24935001 138.46975416 -7.24694284 128.78177057 -7.2421875 119.09378052 C-7.23674484 107.87560605 -7.23850748 96.65744976 -7.24401391 85.43927574 C-7.24854436 75.8265791 -7.24919592 66.21388794 -7.24657524 56.60119057 C-7.24501209 50.85162686 -7.24481972 45.10207171 -7.24811172 39.35250854 C-7.25098946 33.94849543 -7.24901655 28.54450586 -7.24321747 23.1404953 C-7.24188934 21.15101918 -7.24228487 19.16154109 -7.24448013 17.17206573 C-7.24718959 14.46837182 -7.24381304 11.76475462 -7.23880005 9.06106567 C-7.24103077 8.26312529 -7.24326149 7.4651849 -7.24555981 6.6430645 C-7.22096464 -0.13780519 -6.63878964 0.00215232 0 0 Z M0.88818359 8.12698364 C0.88818359 71.48698364 0.88818359 134.84698364 0.88818359 200.12698364 C36.52818359 200.12698364 72.16818359 200.12698364 108.88818359 200.12698364 C109.21818359 188.57698364 109.54818359 177.02698364 109.88818359 165.12698364 C121.43818359 164.79698364 132.98818359 164.46698364 144.88818359 164.12698364 C144.88818359 112.64698364 144.88818359 61.16698364 144.88818359 8.12698364 C97.36818359 8.12698364 49.84818359 8.12698364 0.88818359 8.12698364 Z M116.88818359 172.12698364 C116.88818359 179.05698364 116.88818359 185.98698364 116.88818359 193.12698364 C122.40601714 188.43830168 122.40601714 188.43830168 127.63427734 183.51370239 C128.24335938 182.90590942 128.85244141 182.29811646 129.47998047 181.67190552 C130.0890625 181.0589563 130.69814453 180.44600708 131.32568359 179.81448364 C131.96183594 179.18219849 132.59798828 178.54991333 133.25341797 177.89846802 C133.85347656 177.29712036 134.45353516 176.69577271 135.07177734 176.07620239 C135.61374756 175.53310425 136.15571777 174.9900061 136.71411133 174.43045044 C137.99972768 173.295525 137.99972768 173.295525 137.88818359 172.12698364 C130.95818359 172.12698364 124.02818359 172.12698364 116.88818359 172.12698364 Z " fill="#000000" transform="translate(31.11181640625,23.873016357421875)"/>
<path d="M0 0 C4.97271143 2.30875888 7.32531791 5.27771105 10 10 C10.45410156 13.43505859 10.45410156 13.43505859 10.390625 17.1484375 C10.38496521 17.80582916 10.37930542 18.46322083 10.37347412 19.14053345 C10.35126275 21.21946191 10.3011042 23.29660163 10.25 25.375 C10.22991489 26.79294368 10.21166765 28.21091465 10.1953125 29.62890625 C10.15145067 33.08650877 10.08253437 36.54307951 10 40 C12.64 40 15.28 40 18 40 C17.979375 38.865625 17.95875 37.73125 17.9375 36.5625 C18 33 18 33 19 32 C22 31.875 22 31.875 25 32 C26.6939938 33.6939938 26.1258158 35.80292438 26.13552856 38.06329346 C26.13350433 38.78748474 26.1314801 39.51167603 26.12939453 40.2578125 C26.13114685 41.01713074 26.13289917 41.77644897 26.13470459 42.55877686 C26.1391233 45.08087416 26.13618506 47.60290193 26.1328125 50.125 C26.13348553 51.86995456 26.13445555 53.61490904 26.13571167 55.35986328 C26.13718867 59.02181895 26.13503403 62.68375028 26.13037109 66.34570312 C26.1246738 71.05044492 26.1279528 75.75512968 26.13394356 80.45986938 C26.13754912 84.06453891 26.13641061 87.66919482 26.13381577 91.27386475 C26.13314648 93.00909431 26.13397496 94.74432509 26.13629532 96.47955322 C26.13882177 98.90046487 26.13498138 101.32128286 26.12939453 103.7421875 C26.13141876 104.46637878 26.13344299 105.19057007 26.13552856 105.93670654 C26.11426266 110.88573734 26.11426266 110.88573734 25 112 C22 112.125 22 112.125 19 112 C18 111 18 111 17.88647461 107.30639648 C17.88663376 105.66128708 17.89233012 104.01617269 17.90234375 102.37109375 C17.9037587 101.50686295 17.90517365 100.64263214 17.90663147 99.75221252 C17.91224761 96.98060708 17.92480281 94.2090812 17.9375 91.4375 C17.94251292 89.5631522 17.94707619 87.68880315 17.95117188 85.81445312 C17.96222228 81.20960456 17.9794977 76.60481579 18 72 C15.36 72 12.72 72 10 72 C10.01013972 72.59171588 10.02027945 73.18343176 10.03072643 73.79307842 C10.27602832 88.34010144 10.45681341 102.8870011 10.56993389 117.4356184 C10.626125 124.47208982 10.70269576 131.50714915 10.82983398 138.54272461 C11.94693916 201.57959126 11.94693916 201.57959126 -3 224 C-6.125 224.1875 -6.125 224.1875 -9 224 C-9.94370994 222.13005795 -10.88485139 220.25878738 -11.81502724 218.38207626 C-12.58356436 216.83713438 -13.36370638 215.29789038 -14.15740013 213.76572037 C-24.01799251 194.12853118 -23.26068813 174.44373488 -23.04427171 153.01304007 C-23.00230752 147.99515148 -23.00934274 142.97729012 -23.00968933 137.95925903 C-23.0032338 129.55925925 -22.96259612 121.16000337 -22.89868164 112.76025391 C-22.82509891 103.05991426 -22.79736183 93.3603004 -22.795533 83.65969837 C-22.79328495 73.28498056 -22.76058439 62.91053067 -22.71751952 52.53591013 C-22.70704792 49.55942565 -22.70197835 46.58297163 -22.69800758 43.60647202 C-22.69009525 38.9389479 -22.66156324 34.27198196 -22.61707115 29.60466766 C-22.60380689 27.89467126 -22.59725591 26.18460749 -22.59794617 24.47455978 C-22.59766918 22.1389422 -22.57276905 19.80483245 -22.5415802 17.4694519 C-22.533578 16.16402372 -22.52557581 14.85859554 -22.51733112 13.51360893 C-21.74385253 8.26029791 -19.28191765 5.21782176 -15.5 1.625 C-10.33499991 -0.77303575 -5.5997712 -0.75381535 0 0 Z M-11.3125 10.8125 C-14.53288065 14.9870675 -14.11908453 19.16549816 -14.0625 24.1875 C-14.041875 26.765625 -14.02125 29.34375 -14 32 C-8.72 32 -3.44 32 2 32 C2.061875 29.48375 2.12375 26.9675 2.1875 24.375 C2.21481201 23.59431152 2.24212402 22.81362305 2.27026367 22.00927734 C2.32605543 17.28317584 1.60250797 14.09595686 -1 10 C-4.79531479 8.10234261 -7.97321965 8.19522621 -11.3125 10.8125 Z M-14 40 C-14 70.36 -14 100.72 -14 132 C-8.72 132 -3.44 132 2 132 C2 101.64 2 71.28 2 40 C-3.28 40 -8.56 40 -14 40 Z M10 48 C10 53.28 10 58.56 10 64 C12.64 64 15.28 64 18 64 C18 58.72 18 53.44 18 48 C15.36 48 12.72 48 10 48 Z M-14 140 C-14 154.52 -14 169.04 -14 184 C-8.72 184 -3.44 184 2 184 C2 169.48 2 154.96 2 140 C-3.28 140 -8.56 140 -14 140 Z M-11 192 C-10.36843005 197.05255964 -8.86540627 201.29593201 -7 206 C-6.34 206 -5.68 206 -5 206 C-4.32739649 204.23141309 -3.66211605 202.46003984 -3 200.6875 C-2.62875 199.70136719 -2.2575 198.71523437 -1.875 197.69921875 C-0.84581498 194.99728344 -0.84581498 194.99728344 -1 192 C-4.3 192 -7.6 192 -11 192 Z " fill="#000000" transform="translate(214,16)"/>
<path d="M0 0 C0.89182983 -0.00281982 1.78365967 -0.00563965 2.70251465 -0.00854492 C4.18153259 -0.00550858 4.18153259 -0.00550858 5.69042969 -0.00241089 C6.7228479 -0.00416321 7.75526611 -0.00591553 8.81896973 -0.00772095 C12.25009821 -0.01214168 15.68117563 -0.00920069 19.11230469 -0.00582886 C21.48502614 -0.00650183 23.85774753 -0.0074718 26.23046875 -0.00872803 C31.21061864 -0.0102053 36.19075063 -0.00804949 41.17089844 -0.00338745 C47.57059148 0.00230985 53.97024258 -0.000969 60.36993408 -0.00695992 C65.27165038 -0.01056473 70.17335665 -0.00942731 75.07507324 -0.00683212 C77.43550623 -0.00616263 79.79594012 -0.00699204 82.15637207 -0.00931168 C85.44899931 -0.0118369 88.74155761 -0.00799944 92.03417969 -0.00241089 C93.02019165 -0.00443512 94.00620361 -0.00645935 95.02209473 -0.00854492 C95.91392456 -0.0057251 96.80575439 -0.00290527 97.72460938 0 C98.50406921 0.00037703 99.28352905 0.00075405 100.08660889 0.0011425 C101.86230469 0.12698364 101.86230469 0.12698364 102.86230469 1.12698364 C102.98730469 4.12698364 102.98730469 4.12698364 102.86230469 7.12698364 C101.316369 8.67291933 99.87740395 8.25292598 97.72460938 8.25396729 C96.83277954 8.25678711 95.94094971 8.25960693 95.02209473 8.26251221 C94.03608276 8.26048798 93.0500708 8.25846375 92.03417969 8.25637817 C91.00176147 8.25813049 89.96934326 8.25988281 88.90563965 8.26168823 C85.47451117 8.26610897 82.04343374 8.26316797 78.61230469 8.25979614 C76.23958323 8.26046912 73.86686184 8.26143909 71.49414062 8.26269531 C66.51399074 8.26417259 61.53385875 8.26201678 56.55371094 8.25735474 C50.1540179 8.25165744 43.75436679 8.25493629 37.35467529 8.2609272 C32.452959 8.26453202 27.55125272 8.26339459 22.64953613 8.26079941 C20.28910314 8.26012992 17.92866925 8.26095932 15.5682373 8.26327896 C12.27561006 8.26580418 8.98305176 8.26196673 5.69042969 8.25637817 C4.70441772 8.2584024 3.71840576 8.26042664 2.70251465 8.26251221 C1.81068481 8.25969238 0.91885498 8.25687256 0 8.25396729 C-0.77945984 8.25359026 -1.55891968 8.25321323 -2.36199951 8.25282478 C-4.13769531 8.12698364 -4.13769531 8.12698364 -5.13769531 7.12698364 C-5.26269531 4.12698364 -5.26269531 4.12698364 -5.13769531 1.12698364 C-3.59175962 -0.41895205 -2.15279457 0.00104131 0 0 Z " fill="#000000" transform="translate(53.1376953125,87.87301635742188)"/>
<path d="M0 0 C1.63485352 -0.05607422 1.63485352 -0.05607422 3.30273438 -0.11328125 C12.34813992 -0.21237882 12.34813992 -0.21237882 16.01953125 2.7734375 C18.97311244 6.1245194 19.43934767 7.56818895 19.4453125 11.91015625 C19.44724609 13.24723633 19.44724609 13.24723633 19.44921875 14.61132812 C19.44535156 15.54396484 19.44148438 16.47660156 19.4375 17.4375 C19.44330078 18.84225586 19.44330078 18.84225586 19.44921875 20.27539062 C19.44792969 21.16548828 19.44664062 22.05558594 19.4453125 22.97265625 C19.44418457 23.79258057 19.44305664 24.61250488 19.44189453 25.45727539 C19.3125 27.375 19.3125 27.375 18.3125 28.375 C15.3125 28.5 15.3125 28.5 12.3125 28.375 C10.17976303 26.24226303 10.96198823 20.93055286 10.8828125 17.921875 C10.77763996 13.94422997 10.77763996 13.94422997 8.78271484 10.65380859 C8.29754395 10.23180176 7.81237305 9.80979492 7.3125 9.375 C7.32410156 10.66277344 7.33570313 11.95054688 7.34765625 13.27734375 C7.3570327 14.95572772 7.36613305 16.63411326 7.375 18.3125 C7.38337891 19.16263672 7.39175781 20.01277344 7.40039062 20.88867188 C7.40522461 22.10200195 7.40522461 22.10200195 7.41015625 23.33984375 C7.41801147 24.46314087 7.41801147 24.46314087 7.42602539 25.60913086 C7.3125 27.375 7.3125 27.375 6.3125 28.375 C3.3125 28.5 3.3125 28.5 0.3125 28.375 C-0.6875 27.375 -0.6875 27.375 -0.80102539 25.51733398 C-0.79578857 24.72657471 -0.79055176 23.93581543 -0.78515625 23.12109375 C-0.78193359 22.26708984 -0.77871094 21.41308594 -0.77539062 20.53320312 C-0.76701172 19.63537109 -0.75863281 18.73753906 -0.75 17.8125 C-0.74548828 16.91080078 -0.74097656 16.00910156 -0.73632812 15.08007812 C-0.72450225 12.84498686 -0.7080222 10.61002563 -0.6875 8.375 C-2.0075 8.375 -3.3275 8.375 -4.6875 8.375 C-4.68226318 8.94532959 -4.67702637 9.51565918 -4.67163086 10.10327148 C-4.65091779 12.67300323 -4.6378581 15.24271747 -4.625 17.8125 C-4.61662109 18.71033203 -4.60824219 19.60816406 -4.59960938 20.53320312 C-4.59638672 21.38720703 -4.59316406 22.24121094 -4.58984375 23.12109375 C-4.58460693 23.91185303 -4.57937012 24.7026123 -4.57397461 25.51733398 C-4.6875 27.375 -4.6875 27.375 -5.6875 28.375 C-8.6875 28.5 -8.6875 28.5 -11.6875 28.375 C-13.46199594 26.60050406 -12.81780072 24.02482739 -12.8203125 21.625 C-12.82160156 20.4596875 -12.82289062 19.294375 -12.82421875 18.09375 C-12.82035156 16.8665625 -12.81648438 15.639375 -12.8125 14.375 C-12.81636719 13.1478125 -12.82023437 11.920625 -12.82421875 10.65625 C-12.82292969 9.4909375 -12.82164063 8.325625 -12.8203125 7.125 C-12.81918457 6.04734375 -12.81805664 4.9696875 -12.81689453 3.859375 C-12.50946417 -2.04328787 -4.57192809 0.05844417 0 0 Z " fill="#000000" transform="translate(136.6875,51.625)"/>
<path d="M0 0 C1.08628693 0.00303635 1.08628693 0.00303635 2.19451904 0.00613403 C3.3334964 0.00350555 3.3334964 0.00350555 4.4954834 0.00082397 C7.0175807 -0.00359473 9.53960847 -0.00065649 12.06170654 0.00271606 C13.80666111 0.00204303 15.55161558 0.00107301 17.29656982 -0.00018311 C20.95852549 -0.0016601 24.62045682 0.00049454 28.28240967 0.00515747 C32.98715147 0.01085476 37.69183622 0.00757577 42.39657593 0.00158501 C46.00124546 -0.00202055 49.60590136 -0.00088204 53.21057129 0.0017128 C54.94580085 0.00238208 56.68103163 0.0015536 58.41625977 -0.00076675 C60.83717142 -0.0032932 63.25798941 0.00054718 65.67889404 0.00613403 C66.40308533 0.0041098 67.12727661 0.00208557 67.87341309 0 C72.82244388 0.0212659 72.82244388 0.0212659 73.93670654 1.13552856 C74.06170654 4.13552856 74.06170654 4.13552856 73.93670654 7.13552856 C72.24271274 8.82952237 70.13378216 8.26134436 67.87341309 8.27105713 C67.1492218 8.2690329 66.42503052 8.26700867 65.67889404 8.2649231 C64.91957581 8.26667542 64.16025757 8.26842773 63.37792969 8.27023315 C60.85583239 8.27465186 58.33380462 8.27171362 55.81170654 8.26834106 C54.06675198 8.2690141 52.3217975 8.26998412 50.57684326 8.27124023 C46.91488759 8.27271723 43.25295627 8.27056259 39.59100342 8.26589966 C34.88626162 8.26020237 30.18157686 8.26348136 25.47683716 8.26947212 C21.87216763 8.27307768 18.26751173 8.27193917 14.6628418 8.26934433 C12.92761224 8.26867505 11.19238146 8.26950353 9.45715332 8.27182388 C7.03624167 8.27435033 4.61542368 8.27050995 2.19451904 8.2649231 C1.47032776 8.26694733 0.74613647 8.26897156 0 8.27105713 C-4.94903079 8.24979123 -4.94903079 8.24979123 -6.06329346 7.13552856 C-6.18829346 4.13552856 -6.18829346 4.13552856 -6.06329346 1.13552856 C-4.36929966 -0.55846524 -2.26036908 0.00971277 0 0 Z " fill="#000000" transform="translate(86.06329345703125,171.86447143554688)"/>
<path d="M0 0 C1.08628693 0.00303635 1.08628693 0.00303635 2.19451904 0.00613403 C3.3334964 0.00350555 3.3334964 0.00350555 4.4954834 0.00082397 C7.0175807 -0.00359473 9.53960847 -0.00065649 12.06170654 0.00271606 C13.80666111 0.00204303 15.55161558 0.00107301 17.29656982 -0.00018311 C20.95852549 -0.0016601 24.62045682 0.00049454 28.28240967 0.00515747 C32.98715147 0.01085476 37.69183622 0.00757577 42.39657593 0.00158501 C46.00124546 -0.00202055 49.60590136 -0.00088204 53.21057129 0.0017128 C54.94580085 0.00238208 56.68103163 0.0015536 58.41625977 -0.00076675 C60.83717142 -0.0032932 63.25798941 0.00054718 65.67889404 0.00613403 C66.40308533 0.0041098 67.12727661 0.00208557 67.87341309 0 C72.82244388 0.0212659 72.82244388 0.0212659 73.93670654 1.13552856 C74.06170654 4.13552856 74.06170654 4.13552856 73.93670654 7.13552856 C72.24271274 8.82952237 70.13378216 8.26134436 67.87341309 8.27105713 C67.1492218 8.2690329 66.42503052 8.26700867 65.67889404 8.2649231 C64.91957581 8.26667542 64.16025757 8.26842773 63.37792969 8.27023315 C60.85583239 8.27465186 58.33380462 8.27171362 55.81170654 8.26834106 C54.06675198 8.2690141 52.3217975 8.26998412 50.57684326 8.27124023 C46.91488759 8.27271723 43.25295627 8.27056259 39.59100342 8.26589966 C34.88626162 8.26020237 30.18157686 8.26348136 25.47683716 8.26947212 C21.87216763 8.27307768 18.26751173 8.27193917 14.6628418 8.26934433 C12.92761224 8.26867505 11.19238146 8.26950353 9.45715332 8.27182388 C7.03624167 8.27435033 4.61542368 8.27050995 2.19451904 8.2649231 C1.47032776 8.26694733 0.74613647 8.26897156 0 8.27105713 C-4.94903079 8.24979123 -4.94903079 8.24979123 -6.06329346 7.13552856 C-6.18829346 4.13552856 -6.18829346 4.13552856 -6.06329346 1.13552856 C-4.36929966 -0.55846524 -2.26036908 0.00971277 0 0 Z " fill="#000000" transform="translate(86.06329345703125,139.86447143554688)"/>
<path d="M0 0 C1.08628693 0.00303635 1.08628693 0.00303635 2.19451904 0.00613403 C3.3334964 0.00350555 3.3334964 0.00350555 4.4954834 0.00082397 C7.0175807 -0.00359473 9.53960847 -0.00065649 12.06170654 0.00271606 C13.80666111 0.00204303 15.55161558 0.00107301 17.29656982 -0.00018311 C20.95852549 -0.0016601 24.62045682 0.00049454 28.28240967 0.00515747 C32.98715147 0.01085476 37.69183622 0.00757577 42.39657593 0.00158501 C46.00124546 -0.00202055 49.60590136 -0.00088204 53.21057129 0.0017128 C54.94580085 0.00238208 56.68103163 0.0015536 58.41625977 -0.00076675 C60.83717142 -0.0032932 63.25798941 0.00054718 65.67889404 0.00613403 C66.40308533 0.0041098 67.12727661 0.00208557 67.87341309 0 C72.82244388 0.0212659 72.82244388 0.0212659 73.93670654 1.13552856 C74.06170654 4.13552856 74.06170654 4.13552856 73.93670654 7.13552856 C72.24271274 8.82952237 70.13378216 8.26134436 67.87341309 8.27105713 C67.1492218 8.2690329 66.42503052 8.26700867 65.67889404 8.2649231 C64.91957581 8.26667542 64.16025757 8.26842773 63.37792969 8.27023315 C60.85583239 8.27465186 58.33380462 8.27171362 55.81170654 8.26834106 C54.06675198 8.2690141 52.3217975 8.26998412 50.57684326 8.27124023 C46.91488759 8.27271723 43.25295627 8.27056259 39.59100342 8.26589966 C34.88626162 8.26020237 30.18157686 8.26348136 25.47683716 8.26947212 C21.87216763 8.27307768 18.26751173 8.27193917 14.6628418 8.26934433 C12.92761224 8.26867505 11.19238146 8.26950353 9.45715332 8.27182388 C7.03624167 8.27435033 4.61542368 8.27050995 2.19451904 8.2649231 C1.47032776 8.26694733 0.74613647 8.26897156 0 8.27105713 C-4.94903079 8.24979123 -4.94903079 8.24979123 -6.06329346 7.13552856 C-6.18829346 4.13552856 -6.18829346 4.13552856 -6.06329346 1.13552856 C-4.36929966 -0.55846524 -2.26036908 0.00971277 0 0 Z " fill="#000000" transform="translate(86.06329345703125,107.86447143554688)"/>
<path d="M0 0 C0.98484375 -0.00128906 1.9696875 -0.00257813 2.984375 -0.00390625 C4.02078125 -0.00003906 5.0571875 0.00382813 6.125 0.0078125 C7.67960937 0.00201172 7.67960937 0.00201172 9.265625 -0.00390625 C10.25046875 -0.00261719 11.2353125 -0.00132812 12.25 0 C13.16007812 0.00112793 14.07015625 0.00225586 15.0078125 0.00341797 C17.125 0.1328125 17.125 0.1328125 18.125 1.1328125 C18.2241657 2.75538794 18.25579777 4.38221081 18.2578125 6.0078125 C18.25974609 7.48507813 18.25974609 7.48507813 18.26171875 8.9921875 C18.25785156 10.02859375 18.25398438 11.065 18.25 12.1328125 C18.25580078 13.68742188 18.25580078 13.68742188 18.26171875 15.2734375 C18.26042969 16.25828125 18.25914063 17.243125 18.2578125 18.2578125 C18.25668457 19.16789062 18.25555664 20.07796875 18.25439453 21.015625 C18.125 23.1328125 18.125 23.1328125 17.125 24.1328125 C15.50242456 24.2319782 13.87560169 24.26361027 12.25 24.265625 C11.26515625 24.26691406 10.2803125 24.26820313 9.265625 24.26953125 C8.22921875 24.26566406 7.1928125 24.26179688 6.125 24.2578125 C4.57039063 24.26361328 4.57039063 24.26361328 2.984375 24.26953125 C1.99953125 24.26824219 1.0146875 24.26695312 0 24.265625 C-0.91007812 24.26449707 -1.82015625 24.26336914 -2.7578125 24.26220703 C-4.875 24.1328125 -4.875 24.1328125 -5.875 23.1328125 C-5.9741657 21.51023706 -6.00579777 19.88341419 -6.0078125 18.2578125 C-6.00910156 17.27296875 -6.01039062 16.288125 -6.01171875 15.2734375 C-6.00785156 14.23703125 -6.00398438 13.200625 -6 12.1328125 C-6.00580078 10.57820312 -6.00580078 10.57820312 -6.01171875 8.9921875 C-6.01042969 8.00734375 -6.00914063 7.0225 -6.0078125 6.0078125 C-6.00668457 5.09773437 -6.00555664 4.18765625 -6.00439453 3.25 C-5.75735363 -0.79214854 -3.51772145 0.00435978 0 0 Z M2.125 8.1328125 C2.125 10.7728125 2.125 13.4128125 2.125 16.1328125 C4.765 16.1328125 7.405 16.1328125 10.125 16.1328125 C10.125 13.4928125 10.125 10.8528125 10.125 8.1328125 C7.485 8.1328125 4.845 8.1328125 2.125 8.1328125 Z " fill="#000000" transform="translate(53.875,171.8671875)"/>
<path d="M0 0 C0.98484375 -0.00128906 1.9696875 -0.00257813 2.984375 -0.00390625 C4.02078125 -0.00003906 5.0571875 0.00382813 6.125 0.0078125 C7.67960937 0.00201172 7.67960937 0.00201172 9.265625 -0.00390625 C10.25046875 -0.00261719 11.2353125 -0.00132812 12.25 0 C13.16007812 0.00112793 14.07015625 0.00225586 15.0078125 0.00341797 C17.125 0.1328125 17.125 0.1328125 18.125 1.1328125 C18.2241657 2.75538794 18.25579777 4.38221081 18.2578125 6.0078125 C18.25974609 7.48507813 18.25974609 7.48507813 18.26171875 8.9921875 C18.25785156 10.02859375 18.25398438 11.065 18.25 12.1328125 C18.25580078 13.68742188 18.25580078 13.68742188 18.26171875 15.2734375 C18.26042969 16.25828125 18.25914063 17.243125 18.2578125 18.2578125 C18.25668457 19.16789062 18.25555664 20.07796875 18.25439453 21.015625 C18.125 23.1328125 18.125 23.1328125 17.125 24.1328125 C15.50242456 24.2319782 13.87560169 24.26361027 12.25 24.265625 C11.26515625 24.26691406 10.2803125 24.26820313 9.265625 24.26953125 C8.22921875 24.26566406 7.1928125 24.26179688 6.125 24.2578125 C4.57039063 24.26361328 4.57039063 24.26361328 2.984375 24.26953125 C1.99953125 24.26824219 1.0146875 24.26695312 0 24.265625 C-0.91007812 24.26449707 -1.82015625 24.26336914 -2.7578125 24.26220703 C-4.875 24.1328125 -4.875 24.1328125 -5.875 23.1328125 C-5.9741657 21.51023706 -6.00579777 19.88341419 -6.0078125 18.2578125 C-6.00910156 17.27296875 -6.01039062 16.288125 -6.01171875 15.2734375 C-6.00785156 14.23703125 -6.00398438 13.200625 -6 12.1328125 C-6.00580078 10.57820312 -6.00580078 10.57820312 -6.01171875 8.9921875 C-6.01042969 8.00734375 -6.00914063 7.0225 -6.0078125 6.0078125 C-6.00668457 5.09773437 -6.00555664 4.18765625 -6.00439453 3.25 C-5.75735363 -0.79214854 -3.51772145 0.00435978 0 0 Z M2.125 8.1328125 C2.125 10.7728125 2.125 13.4128125 2.125 16.1328125 C4.765 16.1328125 7.405 16.1328125 10.125 16.1328125 C10.125 13.4928125 10.125 10.8528125 10.125 8.1328125 C7.485 8.1328125 4.845 8.1328125 2.125 8.1328125 Z " fill="#000000" transform="translate(53.875,139.8671875)"/>
<path d="M0 0 C0.98484375 -0.00128906 1.9696875 -0.00257812 2.984375 -0.00390625 C4.02078125 -0.00003906 5.0571875 0.00382812 6.125 0.0078125 C7.67960937 0.00201172 7.67960937 0.00201172 9.265625 -0.00390625 C10.25046875 -0.00261719 11.2353125 -0.00132813 12.25 0 C13.16007812 0.00112793 14.07015625 0.00225586 15.0078125 0.00341797 C17.125 0.1328125 17.125 0.1328125 18.125 1.1328125 C18.2241657 2.75538794 18.25579777 4.38221081 18.2578125 6.0078125 C18.25974609 7.48507813 18.25974609 7.48507813 18.26171875 8.9921875 C18.25785156 10.02859375 18.25398438 11.065 18.25 12.1328125 C18.25580078 13.68742187 18.25580078 13.68742187 18.26171875 15.2734375 C18.26042969 16.25828125 18.25914063 17.243125 18.2578125 18.2578125 C18.25668457 19.16789062 18.25555664 20.07796875 18.25439453 21.015625 C18.125 23.1328125 18.125 23.1328125 17.125 24.1328125 C15.50242456 24.2319782 13.87560169 24.26361027 12.25 24.265625 C11.26515625 24.26691406 10.2803125 24.26820313 9.265625 24.26953125 C8.22921875 24.26566406 7.1928125 24.26179688 6.125 24.2578125 C4.57039063 24.26361328 4.57039063 24.26361328 2.984375 24.26953125 C1.99953125 24.26824219 1.0146875 24.26695312 0 24.265625 C-0.91007812 24.26449707 -1.82015625 24.26336914 -2.7578125 24.26220703 C-4.875 24.1328125 -4.875 24.1328125 -5.875 23.1328125 C-5.9741657 21.51023706 -6.00579777 19.88341419 -6.0078125 18.2578125 C-6.00910156 17.27296875 -6.01039062 16.288125 -6.01171875 15.2734375 C-6.00785156 14.23703125 -6.00398438 13.200625 -6 12.1328125 C-6.00580078 10.57820313 -6.00580078 10.57820313 -6.01171875 8.9921875 C-6.01042969 8.00734375 -6.00914063 7.0225 -6.0078125 6.0078125 C-6.00668457 5.09773438 -6.00555664 4.18765625 -6.00439453 3.25 C-5.75735363 -0.79214854 -3.51772145 0.00435978 0 0 Z M2.125 8.1328125 C2.125 10.7728125 2.125 13.4128125 2.125 16.1328125 C4.765 16.1328125 7.405 16.1328125 10.125 16.1328125 C10.125 13.4928125 10.125 10.8528125 10.125 8.1328125 C7.485 8.1328125 4.845 8.1328125 2.125 8.1328125 Z " fill="#000000" transform="translate(53.875,107.8671875)"/>
<path d="M0 0 C1.27875 0.00257812 2.5575 0.00515625 3.875 0.0078125 C5.15375 0.00523438 6.4325 0.00265625 7.75 0 C10.875 0.1328125 10.875 0.1328125 11.875 1.1328125 C12 4.1328125 12 4.1328125 11.875 7.1328125 C10.875 8.1328125 10.875 8.1328125 7.3125 8.1953125 C6.178125 8.1746875 5.04375 8.1540625 3.875 8.1328125 C3.875 10.7728125 3.875 13.4128125 3.875 16.1328125 C5.5765625 16.101875 5.5765625 16.101875 7.3125 16.0703125 C10.875 16.1328125 10.875 16.1328125 11.875 17.1328125 C12 20.1328125 12 20.1328125 11.875 23.1328125 C10.875 24.1328125 10.875 24.1328125 7.3125 24.1953125 C6.178125 24.1746875 5.04375 24.1540625 3.875 24.1328125 C3.875 26.7728125 3.875 29.4128125 3.875 32.1328125 C5.5765625 32.101875 5.5765625 32.101875 7.3125 32.0703125 C10.875 32.1328125 10.875 32.1328125 11.875 33.1328125 C12 36.1328125 12 36.1328125 11.875 39.1328125 C10.875 40.1328125 10.875 40.1328125 7.75 40.265625 C6.47125 40.26304688 5.1925 40.26046875 3.875 40.2578125 C2.59625 40.26039062 1.3175 40.26296875 0 40.265625 C-3.125 40.1328125 -3.125 40.1328125 -4.125 39.1328125 C-4.22603255 36.33287653 -4.26470088 33.55812606 -4.2578125 30.7578125 C-4.25876923 29.91814941 -4.25972595 29.07848633 -4.26071167 28.21337891 C-4.26139348 26.43456955 -4.25953917 24.65575773 -4.25537109 22.87695312 C-4.25002283 20.14447474 -4.25531605 17.41216074 -4.26171875 14.6796875 C-4.26105797 12.9557288 -4.25977681 11.23177021 -4.2578125 9.5078125 C-4.25983673 8.68490723 -4.26186096 7.86200195 -4.26394653 7.01416016 C-4.23550725 0.18000906 -4.23550725 0.18000906 0 0 Z " fill="#000000" transform="translate(52.125,39.8671875)"/>
<path d="M0 0 C1.24265625 0.03351562 2.4853125 0.06703125 3.765625 0.1015625 C6.75 0.375 6.75 0.375 7.75 1.375 C7.84971786 3.28958282 7.88080589 5.20782317 7.8828125 7.125 C7.88474609 8.87296875 7.88474609 8.87296875 7.88671875 10.65625 C7.88285156 11.8834375 7.87898438 13.110625 7.875 14.375 C7.88080078 16.21578125 7.88080078 16.21578125 7.88671875 18.09375 C7.88542969 19.2590625 7.88414063 20.424375 7.8828125 21.625 C7.88168457 22.70265625 7.88055664 23.7803125 7.87939453 24.890625 C7.75 27.375 7.75 27.375 6.75 28.375 C4.50593001 28.58060851 2.25265037 28.68924387 0 28.75 C-1.84851563 28.82347656 -1.84851563 28.82347656 -3.734375 28.8984375 C-7.25 28.375 -7.25 28.375 -10.1640625 26.4140625 C-12.98687987 22.30141846 -12.99375424 19.25184097 -12.875 14.375 C-12.89433594 13.5809375 -12.91367188 12.786875 -12.93359375 11.96875 C-12.89905616 7.82423891 -12.56175258 5.82920132 -10.1640625 2.3359375 C-6.50688758 -0.12505688 -4.37080115 -0.17373477 0 0 Z M-3.25 9.375 C-4.45561184 10.35767859 -4.45561184 10.35767859 -4.34765625 12.22265625 C-4.33605469 12.95355469 -4.32445313 13.68445313 -4.3125 14.4375 C-4.291875 15.736875 -4.27125 17.03625 -4.25 18.375 C-2.93 18.375 -1.61 18.375 -0.25 18.375 C-0.25 15.735 -0.25 13.095 -0.25 10.375 C-1.24 10.045 -2.23 9.715 -3.25 9.375 Z " fill="#000000" transform="translate(108.25,51.625)"/>
<path d="M0 0 C1.27875 0.00257812 2.5575 0.00515625 3.875 0.0078125 C5.15375 0.00523438 6.4325 0.00265625 7.75 0 C10.875 0.1328125 10.875 0.1328125 11.875 1.1328125 C12.10994715 5.04859841 11.91832276 7.99321694 10.75 11.7578125 C9.73685195 15.66566925 10.27413845 16.5753424 11.875 20.1328125 C12.0625 23.8828125 12.0625 23.8828125 11.875 27.1328125 C10.875 28.1328125 10.875 28.1328125 7.75 28.265625 C6.47125 28.26304688 5.1925 28.26046875 3.875 28.2578125 C2.59625 28.26039062 1.3175 28.26296875 0 28.265625 C-3.125 28.1328125 -3.125 28.1328125 -4.125 27.1328125 C-4.35994715 23.21702659 -4.16832276 20.27240806 -3 16.5078125 C-1.98685195 12.59995575 -2.52413845 11.6902826 -4.125 8.1328125 C-4.3125 4.3828125 -4.3125 4.3828125 -4.125 1.1328125 C-3.125 0.1328125 -3.125 0.1328125 0 0 Z " fill="#000000" transform="translate(76.125,51.8671875)"/>
<path d="M0 0 C0.91765137 -0.00315216 1.83530273 -0.00630432 2.78076172 -0.009552 C4.27760498 -0.00651566 4.27760498 -0.00651566 5.8046875 -0.00341797 C6.82191895 -0.00437469 7.83915039 -0.00533142 8.88720703 -0.00631714 C11.04264386 -0.00699908 13.19808272 -0.00514382 15.35351562 -0.00097656 C18.66541121 0.00437148 21.97717117 -0.0009211 25.2890625 -0.00732422 C27.37760447 -0.00666344 29.46614635 -0.00538228 31.5546875 -0.00341797 C32.55258301 -0.0054422 33.55047852 -0.00746643 34.57861328 -0.009552 C35.49626465 -0.00639984 36.41391602 -0.00324768 37.359375 0 C38.17132324 0.00079559 38.98327148 0.00159119 39.81982422 0.00241089 C41.6796875 0.12939453 41.6796875 0.12939453 42.6796875 1.12939453 C42.8046875 4.12939453 42.8046875 4.12939453 42.6796875 7.12939453 C41.10668422 8.70239781 39.54284705 8.25664957 37.359375 8.25878906 C36.44172363 8.26194122 35.52407227 8.26509338 34.57861328 8.26834106 C33.58071777 8.26631683 32.58282227 8.2642926 31.5546875 8.26220703 C30.53745605 8.26316376 29.52022461 8.26412048 28.47216797 8.2651062 C26.31673114 8.26578814 24.16129228 8.26393288 22.00585938 8.25976562 C18.69396379 8.25441758 15.38220383 8.25971016 12.0703125 8.26611328 C9.98177053 8.2654525 7.89322865 8.26417135 5.8046875 8.26220703 C4.30784424 8.26524338 4.30784424 8.26524338 2.78076172 8.26834106 C1.86311035 8.2651889 0.94545898 8.26203674 0 8.25878906 C-0.81194824 8.25799347 -1.62389648 8.25719788 -2.46044922 8.25637817 C-4.3203125 8.12939453 -4.3203125 8.12939453 -5.3203125 7.12939453 C-5.4453125 4.12939453 -5.4453125 4.12939453 -5.3203125 1.12939453 C-3.74730922 -0.44360875 -2.18347205 0.00213949 0 0 Z " fill="#000000" transform="translate(85.3203125,187.87060546875)"/>
<path d="M0 0 C0.91765137 -0.00315216 1.83530273 -0.00630432 2.78076172 -0.009552 C4.27760498 -0.00651566 4.27760498 -0.00651566 5.8046875 -0.00341797 C6.82191895 -0.00437469 7.83915039 -0.00533142 8.88720703 -0.00631714 C11.04264386 -0.00699908 13.19808272 -0.00514382 15.35351562 -0.00097656 C18.66541121 0.00437148 21.97717117 -0.0009211 25.2890625 -0.00732422 C27.37760447 -0.00666344 29.46614635 -0.00538228 31.5546875 -0.00341797 C32.55258301 -0.0054422 33.55047852 -0.00746643 34.57861328 -0.009552 C35.49626465 -0.00639984 36.41391602 -0.00324768 37.359375 0 C38.17132324 0.00079559 38.98327148 0.00159119 39.81982422 0.00241089 C41.6796875 0.12939453 41.6796875 0.12939453 42.6796875 1.12939453 C42.8046875 4.12939453 42.8046875 4.12939453 42.6796875 7.12939453 C41.10668422 8.70239781 39.54284705 8.25664957 37.359375 8.25878906 C36.44172363 8.26194122 35.52407227 8.26509338 34.57861328 8.26834106 C33.58071777 8.26631683 32.58282227 8.2642926 31.5546875 8.26220703 C30.53745605 8.26316376 29.52022461 8.26412048 28.47216797 8.2651062 C26.31673114 8.26578814 24.16129228 8.26393288 22.00585938 8.25976562 C18.69396379 8.25441758 15.38220383 8.25971016 12.0703125 8.26611328 C9.98177053 8.2654525 7.89322865 8.26417135 5.8046875 8.26220703 C4.30784424 8.26524338 4.30784424 8.26524338 2.78076172 8.26834106 C1.86311035 8.2651889 0.94545898 8.26203674 0 8.25878906 C-0.81194824 8.25799347 -1.62389648 8.25719788 -2.46044922 8.25637817 C-4.3203125 8.12939453 -4.3203125 8.12939453 -5.3203125 7.12939453 C-5.4453125 4.12939453 -5.4453125 4.12939453 -5.3203125 1.12939453 C-3.74730922 -0.44360875 -2.18347205 0.00213949 0 0 Z " fill="#000000" transform="translate(85.3203125,155.87060546875)"/>
<path d="M0 0 C0.91765137 -0.00315216 1.83530273 -0.00630432 2.78076172 -0.009552 C4.27760498 -0.00651566 4.27760498 -0.00651566 5.8046875 -0.00341797 C6.82191895 -0.00437469 7.83915039 -0.00533142 8.88720703 -0.00631714 C11.04264386 -0.00699908 13.19808272 -0.00514382 15.35351562 -0.00097656 C18.66541121 0.00437148 21.97717117 -0.0009211 25.2890625 -0.00732422 C27.37760447 -0.00666344 29.46614635 -0.00538228 31.5546875 -0.00341797 C32.55258301 -0.0054422 33.55047852 -0.00746643 34.57861328 -0.009552 C35.49626465 -0.00639984 36.41391602 -0.00324768 37.359375 0 C38.17132324 0.00079559 38.98327148 0.00159119 39.81982422 0.00241089 C41.6796875 0.12939453 41.6796875 0.12939453 42.6796875 1.12939453 C42.8046875 4.12939453 42.8046875 4.12939453 42.6796875 7.12939453 C41.10668422 8.70239781 39.54284705 8.25664957 37.359375 8.25878906 C36.44172363 8.26194122 35.52407227 8.26509338 34.57861328 8.26834106 C33.58071777 8.26631683 32.58282227 8.2642926 31.5546875 8.26220703 C30.53745605 8.26316376 29.52022461 8.26412048 28.47216797 8.2651062 C26.31673114 8.26578814 24.16129228 8.26393288 22.00585938 8.25976562 C18.69396379 8.25441758 15.38220383 8.25971016 12.0703125 8.26611328 C9.98177053 8.2654525 7.89322865 8.26417135 5.8046875 8.26220703 C4.30784424 8.26524338 4.30784424 8.26524338 2.78076172 8.26834106 C1.86311035 8.2651889 0.94545898 8.26203674 0 8.25878906 C-0.81194824 8.25799347 -1.62389648 8.25719788 -2.46044922 8.25637817 C-4.3203125 8.12939453 -4.3203125 8.12939453 -5.3203125 7.12939453 C-5.4453125 4.12939453 -5.4453125 4.12939453 -5.3203125 1.12939453 C-3.74730922 -0.44360875 -2.18347205 0.00213949 0 0 Z " fill="#000000" transform="translate(85.3203125,123.87060546875)"/>
</svg>
