<?xml version="1.0" standalone="no"?>
<!DOCTYPE svg PUBLIC "-//W3C//DTD SVG 20010904//EN"
 "http://www.w3.org/TR/2001/REC-SVG-20010904/DTD/svg10.dtd">
<svg version="1.0" xmlns="http://www.w3.org/2000/svg"
 width="256.000000pt" height="256.000000pt" viewBox="0 0 256.000000 256.000000"
 preserveAspectRatio="xMidYMid meet">

<g transform="translate(0.000000,256.000000) scale(0.100000,-0.100000)"
fill="#000000" stroke="none">
<path d="M592 2508 c-8 -8 -12 -59 -12 -165 l0 -153 -235 0 c-263 0 -290 -5
-325 -62 -20 -32 -20 -48 -20 -806 0 -838 -2 -809 54 -846 23 -14 75 -16 481
-16 l455 0 0 -90 0 -90 -153 0 c-106 0 -157 -4 -165 -12 -7 -7 -12 -40 -12
-80 0 -62 -2 -68 -21 -68 -49 0 -76 -39 -47 -68 17 -17 1359 -17 1376 0 29 29
2 68 -47 68 -19 0 -21 6 -21 68 0 40 -5 73 -12 80 -8 8 -59 12 -165 12 l-153
0 0 90 0 90 455 0 c406 0 458 2 481 16 56 37 54 8 54 846 0 758 0 774 -20 806
-35 57 -62 62 -325 62 l-235 0 0 153 c0 106 -4 157 -12 165 -17 17 -1359 17
-1376 0z m648 -358 l0 -290 -295 0 -295 0 0 290 0 290 295 0 295 0 0 -290z
m670 0 l0 -290 -295 0 -295 0 0 290 0 290 295 0 295 0 0 -290z m-1330 -65 l0
-25 -220 0 c-207 0 -220 -1 -230 -19 -6 -13 -10 -207 -10 -560 0 -477 2 -541
16 -555 14 -14 131 -16 1144 -16 1013 0 1130 2 1144 16 14 14 16 78 16 555 0
353 -4 547 -10 560 -10 18 -23 19 -230 19 l-220 0 0 25 0 25 238 0 c172 0 241
-3 250 -12 9 -9 12 -162 12 -625 l0 -613 -1200 0 -1200 0 0 613 c0 463 3 616
12 625 9 9 78 12 250 12 l238 0 0 -25z m0 -160 l0 -65 -190 0 -190 0 0 65 0
65 190 0 190 0 0 -65z m1780 0 l0 -65 -190 0 -190 0 0 65 0 65 190 0 190 0 0
-65z m-1780 -463 c0 -234 3 -321 12 -330 17 -17 1359 -17 1376 0 9 9 12 96 12
330 l0 318 190 0 190 0 0 -395 0 -395 -1080 0 -1080 0 0 395 0 395 190 0 190
0 0 -318z m660 23 l0 -295 -292 2 -293 3 -3 293 -2 292 295 0 295 0 0 -295z
m668 3 l-3 -293 -292 -3 -293 -2 0 295 0 295 295 0 295 0 -2 -292z m572 -816
c0 -78 -4 -122 -12 -130 -17 -17 -2359 -17 -2376 0 -8 8 -12 52 -12 130 l0
118 1200 0 1200 0 0 -118z m-990 -302 l0 -90 -210 0 -210 0 0 90 0 90 210 0
210 0 0 -90z m330 -205 l0 -45 -540 0 -540 0 0 45 0 45 540 0 540 0 0 -45z"/>
<path d="M879 2361 c-22 -23 -29 -39 -29 -69 0 -39 0 -39 -45 -44 -53 -6 -73
-21 -92 -65 -26 -64 25 -133 99 -133 38 0 38 0 38 -41 0 -103 138 -139 185
-49 8 16 15 42 15 58 0 28 3 30 47 35 35 4 53 12 70 32 25 28 31 82 13 116
-14 25 -62 49 -100 49 -27 0 -30 3 -30 30 0 38 -24 86 -49 100 -39 20 -91 12
-122 -19z m89 -103 c4 -69 17 -81 91 -88 41 -4 56 -9 56 -20 0 -11 -15 -16
-56 -20 -76 -7 -89 -20 -89 -87 0 -40 -4 -55 -16 -60 -23 -9 -34 15 -34 74 0
62 -13 73 -90 73 -44 0 -51 3 -48 18 2 13 16 18 58 22 30 3 61 9 68 13 7 5 12
30 12 61 0 51 14 80 35 73 5 -2 11 -29 13 -59z"/>
<path d="M1418 2234 c-54 -29 -66 -102 -24 -151 l24 -28 182 -3 c204 -4 219 0
246 65 14 31 13 38 -3 71 -10 20 -29 42 -43 49 -38 19 -346 17 -382 -3z m360
-86 c3 -17 -10 -18 -162 -18 -99 0 -167 4 -171 10 -16 26 12 30 168 28 145 -3
162 -5 165 -20z"/>
<path d="M262 1948 c-18 -18 -14 -46 7 -58 31 -16 96 -12 121 8 19 16 21 22
11 40 -10 19 -20 22 -69 22 -32 0 -63 -5 -70 -12z"/>
<path d="M768 1705 c-35 -19 -48 -44 -48 -90 0 -28 9 -45 40 -79 22 -24 40
-47 40 -51 0 -4 -18 -27 -40 -51 -51 -56 -55 -101 -11 -145 23 -23 38 -29 70
-29 35 0 49 7 86 41 l45 42 45 -42 c37 -34 52 -41 84 -41 55 0 90 32 98 87 5
39 2 45 -41 90 l-46 50 31 29 c69 65 76 119 24 171 -31 31 -40 35 -72 30 -25
-4 -51 -20 -80 -49 l-43 -42 -43 42 c-50 49 -96 61 -139 37z m117 -115 c27
-27 56 -50 65 -50 9 0 38 23 65 50 50 51 85 64 85 32 0 -10 -22 -40 -50 -67
-27 -27 -50 -56 -50 -65 0 -9 23 -38 50 -65 49 -48 61 -77 39 -90 -5 -4 -37
18 -69 49 -32 31 -64 56 -70 56 -6 0 -37 -25 -69 -55 -62 -59 -75 -65 -85 -38
-5 12 10 33 49 73 30 30 55 61 55 69 0 7 -25 39 -56 71 -31 32 -53 64 -49 69
13 22 42 10 90 -39z"/>
<path d="M1399 1681 c-21 -22 -29 -39 -29 -66 0 -91 33 -105 240 -105 181 0
212 8 235 63 18 43 9 82 -27 112 -29 25 -32 25 -210 25 l-180 0 -29 -29z m370
-50 c8 -5 11 -16 8 -25 -6 -14 -29 -16 -166 -16 -161 0 -186 5 -161 35 10 12
43 15 159 15 80 0 152 -4 160 -9z"/>
<path d="M1399 1431 c-52 -53 -33 -135 38 -162 41 -15 318 -11 359 6 66 27 78
113 22 160 -29 25 -32 25 -210 25 l-180 0 -29 -29z m376 -66 c0 -19 -8 -20
-159 -23 -163 -3 -191 3 -166 33 11 13 37 15 169 13 148 -3 156 -4 156 -23z"/>
<path d="M1244 751 c-30 -13 -64 -59 -64 -88 0 -54 48 -103 100 -103 53 0 100
49 100 104 0 56 -83 109 -136 87z m56 -91 c0 -13 -7 -20 -20 -20 -13 0 -20 7
-20 20 0 13 7 20 20 20 13 0 20 -7 20 -20z"/>
</g>
</svg>
