<svg xmlns="http://www.w3.org/2000/svg" xmlns:xlink="http://www.w3.org/1999/xlink" version="1.1" width="256" height="256" viewBox="0 0 256 256" xml:space="preserve">

<defs>
</defs>
<g style="stroke: none; stroke-width: 0; stroke-dasharray: none; stroke-linecap: butt; stroke-linejoin: miter; stroke-miterlimit: 10; fill: none; fill-rule: nonzero; opacity: 1;" transform="translate(1.4065934065934016 1.4065934065934016) scale(2.81 2.81)" >
	<path d="M 15.135 71.19 H 4.348 c -1.793 0 -3.261 -1.467 -3.261 -3.261 V 43.818 c 0 -1.793 1.467 -3.261 3.261 -3.261 h 10.788 V 71.19 z" style="stroke: none; stroke-width: 1; stroke-dasharray: none; stroke-linecap: butt; stroke-linejoin: miter; stroke-miterlimit: 10; fill: rgb(59,59,59); fill-rule: nonzero; opacity: 1;" transform=" matrix(1 0 0 1 0 0) " stroke-linecap="round" />
	<path d="M 15.135 72.19 H 4.348 c -2.35 0 -4.261 -1.911 -4.261 -4.261 V 43.818 c 0 -2.349 1.911 -4.26 4.261 -4.26 h 10.788 c 0.552 0 1 0.448 1 1 V 71.19 C 16.135 71.743 15.688 72.19 15.135 72.19 z M 4.348 41.558 c -1.247 0 -2.261 1.014 -2.261 2.26 V 67.93 c 0 1.246 1.014 2.261 2.261 2.261 h 9.788 V 41.558 H 4.348 z" style="stroke: none; stroke-width: 1; stroke-dasharray: none; stroke-linecap: butt; stroke-linejoin: miter; stroke-miterlimit: 10; fill: rgb(59,59,59); fill-rule: nonzero; opacity: 1;" transform=" matrix(1 0 0 1 0 0) " stroke-linecap="round" />
	<path d="M 85.331 40.634 h -2 c 0 -21.389 -17.401 -38.79 -38.79 -38.79 c -21.389 0 -38.79 17.401 -38.79 38.79 h -2 c 0 -22.491 18.298 -40.79 40.79 -40.79 C 67.033 -0.155 85.331 18.143 85.331 40.634 z" style="stroke: none; stroke-width: 1; stroke-dasharray: none; stroke-linecap: butt; stroke-linejoin: miter; stroke-miterlimit: 10; fill: rgb(59,59,59); fill-rule: nonzero; opacity: 1;" transform=" matrix(1 0 0 1 0 0) " stroke-linecap="round" />
	<path d="M 74.865 71.19 h 10.788 c 1.793 0 3.261 -1.467 3.261 -3.261 V 43.818 c 0 -1.793 -1.467 -3.261 -3.261 -3.261 H 74.865 V 71.19 z" style="stroke: none; stroke-width: 1; stroke-dasharray: none; stroke-linecap: butt; stroke-linejoin: miter; stroke-miterlimit: 10; fill: rgb(59,59,59); fill-rule: nonzero; opacity: 1;" transform=" matrix(1 0 0 1 0 0) " stroke-linecap="round" />
	<path d="M 85.652 72.19 H 74.865 c -0.553 0 -1 -0.447 -1 -1 V 40.558 c 0 -0.552 0.447 -1 1 -1 h 10.787 c 2.35 0 4.261 1.911 4.261 4.26 V 67.93 C 89.913 70.279 88.002 72.19 85.652 72.19 z M 75.865 70.19 h 9.787 c 1.246 0 2.261 -1.015 2.261 -2.261 V 43.818 c 0 -1.246 -1.015 -2.26 -2.261 -2.26 h -9.787 V 70.19 z" style="stroke: none; stroke-width: 1; stroke-dasharray: none; stroke-linecap: butt; stroke-linejoin: miter; stroke-miterlimit: 10; fill: rgb(59,59,59); fill-rule: nonzero; opacity: 1;" transform=" matrix(1 0 0 1 0 0) " stroke-linecap="round" />
	<path d="M 66.891 7.71 l -4.427 4.806 c -5.191 -3.285 -11.325 -5.215 -17.922 -5.215 S 31.81 9.232 26.619 12.517 L 22.192 7.71 C 36.462 -1.438 51.361 -1.438 66.891 7.71 z" style="stroke: none; stroke-width: 1; stroke-dasharray: none; stroke-linecap: butt; stroke-linejoin: miter; stroke-miterlimit: 10; fill: rgb(59,59,59); fill-rule: nonzero; opacity: 1;" transform=" matrix(1 0 0 1 0 0) " stroke-linecap="round" />
	<path d="M 26.62 13.517 c -0.272 0 -0.541 -0.11 -0.736 -0.323 l -4.427 -4.807 c -0.2 -0.217 -0.294 -0.512 -0.256 -0.805 c 0.038 -0.293 0.203 -0.554 0.452 -0.714 c 14.546 -9.326 29.938 -9.333 45.746 -0.02 c 0.26 0.154 0.438 0.417 0.481 0.715 s -0.049 0.602 -0.254 0.824 l -4.427 4.807 c -0.328 0.356 -0.862 0.425 -1.271 0.168 c -5.23 -3.311 -11.243 -5.06 -17.387 -5.06 c -6.145 0 -12.157 1.75 -17.387 5.06 C 26.99 13.466 26.804 13.517 26.62 13.517 z M 44.542 6.302 c 6.247 0 12.363 1.703 17.746 4.931 l 3.021 -3.28 C 50.947 -0.116 36.976 -0.128 23.745 7.92 l 3.052 3.313 C 32.178 8.004 38.294 6.302 44.542 6.302 z" style="stroke: none; stroke-width: 1; stroke-dasharray: none; stroke-linecap: butt; stroke-linejoin: miter; stroke-miterlimit: 10; fill: rgb(59,59,59); fill-rule: nonzero; opacity: 1;" transform=" matrix(1 0 0 1 0 0) " stroke-linecap="round" />
	<path d="M 6.077 60.521 c -0.552 0 -1 -0.447 -1 -1 V 45.24 c 0 -0.552 0.448 -1 1 -1 s 1 0.448 1 1 v 14.282 C 7.077 60.074 6.629 60.521 6.077 60.521 z" style="stroke: none; stroke-width: 1; stroke-dasharray: none; stroke-linecap: butt; stroke-linejoin: miter; stroke-miterlimit: 10; fill: rgb(77,77,77); fill-rule: nonzero; opacity: 1;" transform=" matrix(1 0 0 1 0 0) " stroke-linecap="round" />
	<path d="M 6.077 67.508 c -0.552 0 -1 -0.447 -1 -1 v -2.994 c 0 -0.553 0.448 -1 1 -1 s 1 0.447 1 1 v 2.994 C 7.077 67.061 6.629 67.508 6.077 67.508 z" style="stroke: none; stroke-width: 1; stroke-dasharray: none; stroke-linecap: butt; stroke-linejoin: miter; stroke-miterlimit: 10; fill: rgb(77,77,77); fill-rule: nonzero; opacity: 1;" transform=" matrix(1 0 0 1 0 0) " stroke-linecap="round" />
	<path d="M 83.923 60.521 c -0.553 0 -1 -0.447 -1 -1 V 45.24 c 0 -0.552 0.447 -1 1 -1 s 1 0.448 1 1 v 14.282 C 84.923 60.074 84.476 60.521 83.923 60.521 z" style="stroke: none; stroke-width: 1; stroke-dasharray: none; stroke-linecap: butt; stroke-linejoin: miter; stroke-miterlimit: 10; fill: rgb(77,77,77); fill-rule: nonzero; opacity: 1;" transform=" matrix(1 0 0 1 0 0) " stroke-linecap="round" />
	<path d="M 83.923 67.508 c -0.553 0 -1 -0.447 -1 -1 v -2.994 c 0 -0.553 0.447 -1 1 -1 s 1 0.447 1 1 v 2.994 C 84.923 67.061 84.476 67.508 83.923 67.508 z" style="stroke: none; stroke-width: 1; stroke-dasharray: none; stroke-linecap: butt; stroke-linejoin: miter; stroke-miterlimit: 10; fill: rgb(77,77,77); fill-rule: nonzero; opacity: 1;" transform=" matrix(1 0 0 1 0 0) " stroke-linecap="round" />
	<path d="M 71.991 84.84 h -15.61 v -2 h 15.61 c 6.253 0 11.34 -5.087 11.34 -11.34 h 2 C 85.331 78.855 79.347 84.84 71.991 84.84 z" style="stroke: none; stroke-width: 1; stroke-dasharray: none; stroke-linecap: butt; stroke-linejoin: miter; stroke-miterlimit: 10; fill: rgb(59,59,59); fill-rule: nonzero; opacity: 1;" transform=" matrix(1 0 0 1 0 0) " stroke-linecap="round" />
	<circle cx="51.375" cy="83.845" r="5.005" style="stroke: none; stroke-width: 1; stroke-dasharray: none; stroke-linecap: butt; stroke-linejoin: miter; stroke-miterlimit: 10; fill: rgb(59,59,59); fill-rule: nonzero; opacity: 1;" transform="  matrix(1 0 0 1 0 0) "/>
	<path d="M 51.377 89.845 c -3.312 0 -6.005 -2.693 -6.005 -6.005 c 0 -3.311 2.693 -6.004 6.005 -6.004 c 3.311 0 6.004 2.693 6.004 6.004 C 57.381 87.151 54.688 89.845 51.377 89.845 z M 51.377 79.836 c -2.208 0 -4.005 1.796 -4.005 4.004 s 1.797 4.005 4.005 4.005 s 4.004 -1.797 4.004 -4.005 S 53.585 79.836 51.377 79.836 z" style="stroke: none; stroke-width: 1; stroke-dasharray: none; stroke-linecap: butt; stroke-linejoin: miter; stroke-miterlimit: 10; fill: rgb(59,59,59); fill-rule: nonzero; opacity: 1;" transform=" matrix(1 0 0 1 0 0) " stroke-linecap="round" />
</g>
</svg>