<svg xmlns="http://www.w3.org/2000/svg" width="62" height="55" viewBox="0 0 62 55" id="inquiry"><g fill="none" fill-rule="evenodd"><g fill="#000" transform="translate(-489 -394)"><g transform="translate(489 394)"><path d="M56.905.743H5.095C2.657.743.524 2.876.524 5.314v34.134c0 2.438 2.133 4.571 4.571 4.571H5.4c.914 0 1.524.61 1.524 1.524v4.876c0 1.22.61 2.438 1.524 3.352.914.915 2.133 1.22 3.047 1.22 1.22 0 2.438-.61 3.048-1.22l9.143-9.142c.304-.305.61-.61.914-.61h32.305c2.438 0 4.571-2.133 4.571-4.571V5.314c0-2.438-2.133-4.571-4.571-4.571zm1.524 38.705c0 .914-.61 1.523-1.524 1.523h-32c-1.22 0-2.438.61-3.353 1.22l-9.142 9.142c-.915.915-1.524.61-2.134 0-.305-.304-.305-.61-.305-1.219v-4.876c0-2.438-2.133-4.571-4.571-4.571h-.305c-.914 0-1.524-.61-1.524-1.524V5.314c0-.914.61-1.524 1.524-1.524h51.81c.914 0 1.524.61 1.524 1.524v34.134z"></path><path d="M37.4 19.029c0 3.047-2.133 5.485-4.876 6.4v1.219c0 .914-.61 1.523-1.524 1.523s-1.524-.61-1.524-1.523v-2.743c0-.915.61-1.524 1.524-1.524 1.829 0 3.352-1.524 3.352-3.352 0-1.829-1.523-3.353-3.352-3.353s-3.352 1.524-3.352 3.353c0 .914-.61 1.523-1.524 1.523s-1.524-.61-1.524-1.523c0-3.658 3.048-6.4 6.4-6.4 3.657 0 6.4 3.047 6.4 6.4zM31 34.267c-.914 0-1.524-.61-1.524-1.524v-.61c0-.914.61-1.523 1.524-1.523s1.524.609 1.524 1.523v.61c0 .914-.61 1.524-1.524 1.524z"></path></g></g></g></svg>