<svg xmlns="http://www.w3.org/2000/svg" viewBox="0 0 64 64" id="lock-file"><path d="M59,8H57V6a1,1,0,0,0-1-1H47.41l-2.7-2.71A1.033,1.033,0,0,0,44,2H11a1,1,0,0,0-1,1V14.52A10.988,10.988,0,0,0,6,23v5H5a1,1,0,0,0-1,1V49a1,1,0,0,0,1,1h5v5a1,1,0,0,0,1,1h2v2a1,1,0,0,0,1,1h2v2a1,1,0,0,0,1,1H59a1,1,0,0,0,1-1V9A1,1,0,0,0,59,8ZM45,5.41,50.59,11H45ZM8,23a9,9,0,0,1,18,0v5H25V23A8,8,0,0,0,9,23v5H8Zm15,0v5H11V23a6,6,0,0,1,12,0ZM6,48V35h4V33H6V30H28v3H24v2h4V48Zm6,6V50H29a1,1,0,0,0,1-1V29a1,1,0,0,0-1-1H28V23a10.987,10.987,0,0,0-16-9.79V4H43v8a1,1,0,0,0,1,1h8V54Zm3,3V56H53a1,1,0,0,0,1-1V12a1.033,1.033,0,0,0-.29-.71L49.41,7H55V57Zm43,3H18V59H56a1,1,0,0,0,1-1V10h1Z"></path><path d="M16,40.858V46h2V40.858a4,4,0,1,0-2,0ZM17,35a2,2,0,1,1-2,2A2,2,0,0,1,17,35Z"></path></svg>