<?xml version="1.0" standalone="no"?>
<!DOCTYPE svg PUBLIC "-//W3C//DTD SVG 20010904//EN"
 "http://www.w3.org/TR/2001/REC-SVG-20010904/DTD/svg10.dtd">
<svg version="1.0" xmlns="http://www.w3.org/2000/svg"
 width="256.000000pt" height="256.000000pt" viewBox="0 0 256.000000 256.000000"
 preserveAspectRatio="xMidYMid meet">

<g transform="translate(0.000000,256.000000) scale(0.100000,-0.100000)"
fill="#000000" stroke="none">
<path d="M20 2550 c-13 -8 -15 -153 -18 -1190 -1 -806 1 -1187 8 -1200 10 -19
28 -20 633 -22 l622 -3 5 -35 c6 -42 17 -61 50 -83 22 -15 75 -17 590 -17 542
0 566 1 597 20 21 13 35 31 42 57 14 51 15 795 1 845 -15 54 -51 78 -116 78
l-54 0 0 148 c0 161 -12 226 -56 315 -39 76 -136 167 -217 202 l-67 29 0 226
0 225 -208 208 -207 207 -795 0 c-484 0 -801 -4 -810 -10z m1552 -262 l3 -193
193 -3 192 -2 0 -190 0 -190 -53 0 c-207 0 -396 -147 -449 -349 -34 -131 -18
-210 49 -237 77 -33 136 14 146 115 12 112 53 180 138 226 124 67 274 21 344
-106 29 -53 30 -56 30 -204 l0 -150 -423 -5 -424 -5 -24 -28 c-20 -23 -24 -39
-24 -93 l0 -64 -198 0 c-215 0 -237 -5 -230 -51 l3 -24 210 -5 210 -5 0 -105
0 -105 -495 -5 -495 -5 -3 -24 c-8 -51 -5 -51 515 -51 l483 0 0 -105 0 -105
-595 0 -595 0 0 1130 0 1130 745 0 745 0 2 -192z m208 7 l125 -125 -128 0
-127 0 0 125 c0 69 1 125 3 125 1 0 58 -56 127 -125z m304 -708 c87 -44 134
-92 180 -187 30 -63 31 -69 34 -227 l4 -163 -25 0 -25 0 -4 153 c-3 138 -6
157 -30 208 -36 79 -89 133 -166 171 -57 28 -76 33 -142 33 -173 -1 -303 -117
-331 -296 -14 -85 -21 -98 -45 -78 -25 20 -12 125 24 203 69 147 205 229 369
223 71 -3 92 -8 157 -40z m390 -683 c3 -9 6 -192 6 -409 0 -319 -3 -395 -14
-404 -9 -8 -165 -10 -562 -9 l-549 3 -3 418 -2 417 559 0 c500 0 559 -2 565
-16z"/>
<path d="M277 2253 c-12 -11 -8 -50 7 -62 9 -8 158 -10 536 -9 485 3 524 4
534 21 8 12 8 22 0 35 -10 16 -49 17 -541 20 -291 1 -533 -1 -536 -5z"/>
<path d="M283 1963 c-7 -2 -13 -18 -13 -34 0 -39 10 -40 229 -37 162 3 185 5
195 21 8 12 8 22 0 35 -10 15 -32 17 -205 19 -107 1 -200 -1 -206 -4z"/>
<path d="M782 1958 c-16 -16 -15 -43 2 -57 9 -8 148 -10 496 -9 447 3 484 4
494 21 8 12 8 22 0 35 -10 16 -47 17 -495 20 -369 2 -488 -1 -497 -10z"/>
<path d="M280 1666 c-6 -8 -10 -25 -8 -38 l3 -23 560 -3 c308 -1 570 0 583 3
24 6 31 42 10 63 -9 9 -150 12 -574 12 -477 0 -563 -2 -574 -14z"/>
<path d="M280 1376 c-6 -8 -10 -25 -8 -38 3 -23 3 -23 187 -26 184 -2 211 2
211 34 0 7 -7 20 -16 28 -22 23 -355 24 -374 2z"/>
<path d="M746 1374 c-9 -8 -16 -21 -16 -28 0 -33 22 -36 312 -36 274 0 288 1
298 19 13 25 13 27 -6 45 -13 14 -54 16 -294 16 -240 0 -281 -2 -294 -16z"/>
<path d="M280 1086 c-6 -8 -10 -25 -8 -38 l3 -23 490 0 490 0 3 24 c8 51 4 51
-499 51 -395 0 -468 -2 -479 -14z"/>
<path d="M286 797 c-11 -8 -17 -23 -14 -38 l3 -24 250 0 250 0 3 24 c7 47 -14
51 -253 51 -166 0 -226 -3 -239 -13z"/>
<path d="M1863 739 c-101 -30 -144 -168 -78 -248 20 -23 25 -40 25 -83 0 -100
33 -148 100 -148 67 0 100 45 100 134 0 44 6 65 30 103 36 56 39 106 10 162
-33 66 -117 101 -187 80z m77 -79 c19 0 50 -45 50 -72 0 -16 -12 -41 -30 -61
-26 -30 -29 -42 -32 -108 -2 -58 -6 -74 -18 -74 -12 0 -16 17 -18 77 -3 70 -5
80 -32 107 -17 16 -30 40 -30 53 0 45 53 94 88 82 8 -2 18 -4 22 -4z"/>
</g>
</svg>
