<?xml version="1.0" encoding="UTF-8"?>
<svg version="1.1" xmlns="http://www.w3.org/2000/svg" width="256" height="256">
<path d="M0 0 C4.92063993 2.75555836 8.19206105 6.98470947 10.36328125 12.1484375 C10.98673021 14.87951616 11.21253131 17.33443867 11.36328125 20.1484375 C12.20890625 20.3959375 13.05453125 20.6434375 13.92578125 20.8984375 C16.65143638 21.88958482 18.57863452 22.83185995 20.98828125 24.3359375 C24.01652559 26.38780531 24.01652559 26.38780531 26.29296875 25.88671875 C28.54685338 25.08297498 30.69402876 24.15877428 32.86328125 23.1484375 C41.92285174 18.92891152 52.75285916 18.5400758 62.23828125 21.7734375 C68.17106177 24.25651455 73.79966631 27.58482256 78.36328125 32.1484375 C80.75420089 32.45391488 80.75420089 32.45391488 83.52734375 32.421875 C84.56761719 32.4425 85.60789063 32.463125 86.6796875 32.484375 C88.86190322 32.51013906 91.0442201 32.5285325 93.2265625 32.5390625 C100.92356339 32.7094758 106.80563382 33.63129459 112.421875 39.18359375 C112.87691406 39.85261719 113.33195313 40.52164063 113.80078125 41.2109375 C114.27386719 41.88253906 114.74695313 42.55414063 115.234375 43.24609375 C117.41199109 46.91564058 117.49589319 49.97430818 117.5171814 54.14994812 C117.52578186 55.40463394 117.53438232 56.65931976 117.54324341 57.95202637 C117.54767855 59.34521443 117.55197692 60.73840293 117.55615234 62.1315918 C117.56405491 63.59686985 117.57232396 65.06214597 117.58093262 66.52742004 C117.60713767 71.34247991 117.62246001 76.1575484 117.63671875 80.97265625 C117.64207929 82.63139158 117.64745681 84.29012686 117.6528511 85.94886208 C117.67447874 92.85024989 117.6932143 99.75163539 117.7044735 106.65304852 C117.72070522 116.53681785 117.75386521 126.42019361 117.81087434 136.30381459 C117.84960895 143.25680884 117.86911041 150.20969798 117.87439406 157.16279727 C117.87804309 161.31367863 117.89001585 165.46414007 117.9224968 169.6149044 C117.95263934 173.52287652 117.95886766 177.43017601 117.94711304 181.33823967 C117.94689281 182.76847088 117.95515616 184.19873386 117.97276688 185.62885666 C118.08005053 194.84674583 117.38234562 200.8998471 110.92049217 207.65720654 C104.25654057 213.7483489 97.17252289 213.40200504 88.67675781 213.26098633 C86.24847546 213.23852803 83.82019169 213.21622173 81.39190674 213.19404602 C80.10756996 213.17876673 78.82323318 213.16348743 77.49997711 213.14774513 C73.46185601 213.10502388 69.42422328 213.08293196 65.38592529 213.07072449 C64.70173688 213.0685581 64.01754847 213.06639172 63.31262708 213.06415969 C61.91362025 213.05982447 60.51461316 213.05557203 59.11560583 213.05140054 C49.7240519 213.02274639 40.33365017 212.97883595 30.94287109 212.8503418 C24.59622809 212.76370337 18.25114972 212.72446359 11.90390563 212.73759478 C8.55426365 212.74271979 5.21153935 212.71814168 1.86212921 212.64988136 C-15.17991816 212.31671375 -26.2274976 213.83765122 -38.99493694 225.65364647 C-41.10974712 227.57911505 -43.38320962 229.21603557 -45.734375 230.83984375 C-46.40186768 231.32340332 -47.06936035 231.80696289 -47.75708008 232.30517578 C-54.46479823 237.16036637 -61.19223087 241.98702393 -67.94921875 246.7734375 C-68.64861572 247.27045166 -69.3480127 247.76746582 -70.06860352 248.27954102 C-77.49461483 253.52330338 -82.25532499 256.37449337 -91.63671875 255.1484375 C-96.72167274 252.787566 -98.54456924 250.25674735 -100.63671875 245.1484375 C-100.97729492 241.52978516 -100.97729492 241.52978516 -100.9296875 237.5625 C-100.92544266 236.86071625 -100.92119781 236.1589325 -100.91682434 235.43588257 C-100.90015474 233.2146619 -100.86252747 230.99437962 -100.82421875 228.7734375 C-100.80915663 227.25912777 -100.79547091 225.74480369 -100.78320312 224.23046875 C-100.75029058 220.53615818 -100.69859134 216.84238957 -100.63671875 213.1484375 C-101.22573975 213.16938477 -101.81476074 213.19033203 -102.42163086 213.21191406 C-105.13898036 213.2960244 -107.85605484 213.34739217 -110.57421875 213.3984375 C-111.50041016 213.43195313 -112.42660156 213.46546875 -113.38085938 213.5 C-120.62152812 213.60162342 -127.09045552 212.49852838 -132.52124023 207.36816406 C-136.93577552 202.47962664 -138.88363667 198.70862872 -138.90414429 192.02667236 C-138.91267426 190.77061188 -138.92120422 189.51455139 -138.92999268 188.22042847 C-138.92929366 186.83087146 -138.92837061 185.44131454 -138.92724609 184.05175781 C-138.93323145 182.58633074 -138.94003701 181.12090683 -138.94760132 179.65548706 C-138.96527093 175.67595799 -138.96995718 171.69651493 -138.97123289 167.71695042 C-138.97265486 165.22900308 -138.97692537 162.74107759 -138.98222733 160.25313568 C-139.00073293 151.56848259 -139.00889754 142.8838909 -139.00732422 134.19921875 C-139.00612365 126.11260481 -139.02720783 118.02625814 -139.05881155 109.93971181 C-139.08499771 102.99093094 -139.09569049 96.04223721 -139.0944134 89.09340739 C-139.09390432 84.94597783 -139.09955701 80.79878562 -139.1207695 76.65140533 C-139.14019071 72.74756885 -139.14025018 68.84419513 -139.12573624 64.94034195 C-139.12365161 63.51174109 -139.12832842 62.08311098 -139.14045715 60.65456009 C-139.20334637 52.73068151 -139.02562654 46.87836439 -134.63671875 40.1484375 C-132.6015625 38.08984375 -132.6015625 38.08984375 -130.57421875 36.7109375 C-129.90261719 36.23785156 -129.23101562 35.76476563 -128.5390625 35.27734375 C-124.63545314 32.96082813 -121.33448231 33.02913094 -116.88964844 33.03833008 C-115.47686766 33.03778743 -114.0640869 33.03720043 -112.65130615 33.03657532 C-111.52927418 33.03871757 -111.52927418 33.03871757 -110.38457489 33.04090309 C-106.41516885 33.04442824 -102.44590357 33.01861225 -98.4765625 32.99804688 C-93.42907885 32.97373461 -88.38200663 32.95799053 -83.33447266 32.97338867 C-79.25224437 32.98507647 -75.17103558 32.96758407 -71.08896637 32.93094444 C-69.53734782 32.92235101 -67.98563116 32.92437589 -66.43404388 32.9374485 C-56.73098304 33.32932441 -56.73098304 33.32932441 -48.31860352 29.21899414 C-47.41571557 28.20334087 -46.52073472 27.18055861 -45.63671875 26.1484375 C-42.6171875 24.25 -42.6171875 24.25 -39.82421875 22.7734375 C-38.42236328 22.01933594 -38.42236328 22.01933594 -36.9921875 21.25 C-34.63671875 20.1484375 -34.63671875 20.1484375 -32.63671875 20.1484375 C-32.54390625 18.4159375 -32.54390625 18.4159375 -32.44921875 16.6484375 C-31.60431089 10.19745178 -28.43234204 5.16034849 -23.32421875 1.1484375 C-16.74240339 -2.5373791 -7.05235083 -2.27764812 0 0 Z M-21.26953125 13.9296875 C-22.96165252 16.67575859 -23.13354619 18.6951385 -23.32421875 21.8984375 C-23.38996094 22.88328125 -23.45570312 23.868125 -23.5234375 24.8828125 C-23.57951172 26.00429688 -23.57951172 26.00429688 -23.63671875 27.1484375 C-24.24257812 27.28378906 -24.8484375 27.41914063 -25.47265625 27.55859375 C-32.66336895 29.40605378 -37.8892445 32.49752084 -43.63671875 37.1484375 C-44.68859375 37.97601563 -44.68859375 37.97601563 -45.76171875 38.8203125 C-50.37688254 42.89463678 -53.22534602 47.54891988 -56.01171875 52.9609375 C-56.34574707 53.60023193 -56.67977539 54.23952637 -57.02392578 54.89819336 C-61.75250493 64.6534736 -61.82112024 74.57821639 -61.34765625 85.20703125 C-61.28997634 87.72318522 -61.23807946 90.23947717 -61.19140625 92.75585938 C-61.11612759 96.66423959 -61.01308385 100.55962448 -60.81054688 104.46362305 C-59.67934491 127.43314545 -59.67934491 127.43314545 -67.20019531 136.24267578 C-71.42871305 140.59117634 -75.96896951 144.47106821 -80.8265686 148.10047913 C-83.29898361 150.44216194 -83.29898361 150.44216194 -82.63671875 156.1484375 C-35.11671875 156.1484375 12.40328125 156.1484375 61.36328125 156.1484375 C62.03755061 150.43703643 62.03755061 150.43703643 59.54321289 148.1550293 C58.71168701 147.55859619 57.88016113 146.96216309 57.0234375 146.34765625 C41.40726686 133.93422839 41.40726686 133.93422839 40.01316833 123.76643372 C39.23049106 114.91130721 39.62746008 105.99421836 40.36328125 97.1484375 C39.42226562 96.70113281 38.48125 96.25382812 37.51171875 95.79296875 C36.2536925 95.18273213 34.99589196 94.57203003 33.73828125 93.9609375 C33.12082031 93.66896484 32.50335938 93.37699219 31.8671875 93.07617188 C22.05688077 88.2742849 16.54706145 81.04119444 12.48828125 70.9609375 C8.53395002 57.58251148 12.34764622 46.02457657 18.36328125 34.1484375 C16.07399072 32.97689457 13.78209763 31.81105676 11.48828125 30.6484375 C10.83730469 30.31457031 10.18632812 29.98070313 9.515625 29.63671875 C6.11083415 27.78000033 6.11083415 27.78000033 2.36328125 27.1484375 C2.34910156 26.42398437 2.33492188 25.69953125 2.3203125 24.953125 C1.99016368 18.26091912 1.38548512 14.70345961 -3.63671875 10.1484375 C-10.09485561 5.5652436 -16.36766149 8.58219321 -21.26953125 13.9296875 Z M26.67578125 39.9609375 C21.36473117 46.3271631 19.19472614 52.9012766 19.36328125 61.1484375 C20.54213062 70.03997155 24.3029692 77.15294015 31.38671875 82.74609375 C38.72042651 87.56498601 45.63599975 89.08647184 54.36328125 88.1484375 C62.49543096 86.14833588 69.20785829 81.79522953 73.93359375 74.8359375 C78.40351272 67.07104968 79.92814804 59.31848371 77.6796875 50.453125 C74.50753267 41.8448708 69.83959636 36.33054995 61.66796875 32.1484375 C48.70025308 26.52176765 36.205045 29.67727371 26.67578125 39.9609375 Z M-127.97937012 47.47888184 C-131.01643135 52.62537498 -130.19001305 59.09976197 -130.15429688 64.86132812 C-130.15972152 66.2613345 -130.16684611 67.66133516 -130.17553711 69.06132507 C-130.19373303 72.85271711 -130.18671865 76.64367252 -130.17402077 80.43507195 C-130.16387362 84.40810167 -130.1732912 88.38109473 -130.17956543 92.35412598 C-130.18683686 99.02537732 -130.17726745 105.69645137 -130.15820312 112.36767578 C-130.13643523 120.07381922 -130.14348697 127.7795393 -130.16550875 135.48567247 C-130.1836772 142.10922376 -130.18621404 148.7326478 -130.17575407 155.35621595 C-130.16952704 159.30902512 -130.1686616 163.26163547 -130.18190002 167.21443176 C-130.1934791 170.93120391 -130.18539599 174.64743176 -130.162323 178.36414528 C-130.15453552 180.37395612 -130.16637426 182.38381315 -130.17883301 184.39360046 C-130.10369225 192.40645695 -129.50501984 196.31261756 -123.77587891 201.99365234 C-120.90289783 203.54457685 -118.66646269 203.56619429 -115.41015625 203.625 C-114.21390625 203.6559375 -113.01765625 203.686875 -111.78515625 203.71875 C-110.53992188 203.73679688 -109.2946875 203.75484375 -108.01171875 203.7734375 C-105.5402827 203.82429009 -103.06891807 203.87878752 -100.59765625 203.9375 C-99.50243652 203.95506348 -98.4072168 203.97262695 -97.27880859 203.99072266 C-94.63671875 204.1484375 -94.63671875 204.1484375 -92.63671875 205.1484375 C-92.60698975 206.75283691 -92.60698975 206.75283691 -92.57666016 208.38964844 C-92.50050895 212.36319262 -92.41180633 216.33637516 -92.31933594 220.30957031 C-92.28108548 222.02824761 -92.24622572 223.74700388 -92.21484375 225.46582031 C-92.16910747 227.9384379 -92.11112791 230.41051363 -92.05078125 232.8828125 C-92.03923004 233.64962341 -92.02767883 234.41643433 -92.01577759 235.20648193 C-91.98855304 240.55851704 -91.98855304 240.55851704 -89.63671875 245.1484375 C-86.81858581 246.21303969 -85.36669077 246.46393021 -82.57885742 245.2590332 C-81.91088135 244.78554443 -81.24290527 244.31205566 -80.5546875 243.82421875 C-79.79607422 243.29634766 -79.03746094 242.76847656 -78.25585938 242.22460938 C-77.45341797 241.64259766 -76.65097656 241.06058594 -75.82421875 240.4609375 C-74.98181641 239.86732422 -74.13941406 239.27371094 -73.27148438 238.66210938 C-67.33512822 234.45253052 -61.50924215 230.09759269 -55.7199707 225.6887207 C-47.58336217 219.52388262 -39.1114208 213.83508263 -30.63671875 208.1484375 C-29.85068268 207.46800888 -29.06464661 206.78758026 -28.25479126 206.08653259 C-23.51145542 202.95823596 -18.05619684 203.61982588 -12.57617188 203.68188477 C-11.36573715 203.67957855 -10.15530243 203.67727234 -8.90818787 203.67489624 C-6.28377242 203.67226849 -3.66049577 203.67674677 -1.03623962 203.69314766 C3.11622277 203.71833415 7.26827471 203.71196414 11.42077637 203.70066833 C21.73248882 203.67750291 32.04408116 203.69589007 42.35577393 203.72216797 C50.37517656 203.74212826 58.39424977 203.75067139 66.4136529 203.72523159 C70.53858351 203.71343627 74.66257428 203.72502085 78.78740692 203.7544843 C81.95922165 203.770889 85.13091256 203.75501974 88.30273438 203.74438477 C89.44057877 203.75929459 90.57842316 203.77420441 91.75074768 203.78956604 C98.31829275 203.79615999 98.31829275 203.79615999 103.99206543 200.8611908 C107.70810271 196.60991501 108.61255482 193.92788407 108.63070679 188.27896118 C108.63923676 187.07890945 108.64776672 185.87885773 108.65655518 184.6424408 C108.6556488 183.32909256 108.65474243 182.01574432 108.65380859 180.66259766 C108.65979419 179.26289003 108.66659981 177.8631857 108.67416382 176.46348572 C108.69182797 172.66383646 108.69651937 168.86427728 108.69779539 165.06459093 C108.69921732 162.68989533 108.70348769 160.3152226 108.70878983 157.94053268 C108.72729147 149.65369971 108.73546027 141.36693107 108.73388672 133.08007812 C108.73268527 125.35923524 108.75378771 117.63867188 108.78537405 109.91789973 C108.8115378 103.2859197 108.82225398 96.65403096 108.8209759 90.02199972 C108.82046629 86.06242443 108.82614858 82.10309758 108.847332 78.14357376 C108.86671628 74.4186653 108.866838 70.6942422 108.85229874 66.96931648 C108.8492154 64.95468416 108.86588575 62.94005179 108.88317871 60.92549133 C108.88980031 52.20881146 108.88980031 52.20881146 104.36328125 45.1484375 C99.86035655 42.14018108 96.33625911 41.80957964 90.98828125 41.9609375 C89.74304688 41.98800781 88.4978125 42.01507813 87.21484375 42.04296875 C85.80332031 42.09517578 85.80332031 42.09517578 84.36328125 42.1484375 C84.59144531 43.01984375 84.81960937 43.89125 85.0546875 44.7890625 C88.18718853 57.76857348 88.05212657 68.69516337 81.046875 80.3359375 C73.26977643 91.52478775 62.2079766 95.45166438 49.36328125 98.1484375 C47.00443739 113.64738353 47.00443739 113.64738353 51.19580078 128.21142578 C55.67015459 133.56431854 60.84984297 138.04620787 66.39208984 142.26513672 C69.17827751 144.92709506 70.15829009 147.61765939 70.6640625 151.39453125 C70.69066471 156.36914469 70.23708914 159.89094434 67.36328125 164.1484375 C64.47187895 165.11223827 62.53674202 165.29955774 59.5246582 165.35375977 C58.05347282 165.3836776 58.05347282 165.3836776 56.55256653 165.41419983 C54.96806953 165.43926857 54.96806953 165.43926857 53.3515625 165.46484375 C52.26820114 165.48562485 51.18483978 165.50640594 50.06864929 165.52781677 C46.60442509 165.59325547 43.14012445 165.65217103 39.67578125 165.7109375 C37.3287681 165.75412811 34.98176272 165.79774257 32.63476562 165.84179688 C26.87768521 165.94893107 21.12052858 166.05070814 15.36328125 166.1484375 C15.02409668 166.83695801 14.68491211 167.52547852 14.33544922 168.23486328 C13.88830566 169.1370459 13.44116211 170.03922852 12.98046875 170.96875 C12.53815918 171.86352051 12.09584961 172.75829102 11.64013672 173.68017578 C8.42073001 179.90354132 4.24090094 183.59087827 -2.49609375 185.7421875 C-11.54824182 187.46011341 -19.68165342 186.41427602 -27.38671875 181.3359375 C-31.94181425 176.90737243 -34.23039472 171.89234657 -36.63671875 166.1484375 C-37.24171204 166.14035065 -37.84670532 166.13226379 -38.47003174 166.12393188 C-44.76425271 166.03790491 -51.05815807 165.93840194 -57.35205078 165.83105469 C-59.70128074 165.79276084 -62.05056941 165.75790871 -64.39990234 165.7265625 C-67.77592969 165.68092123 -71.15155266 165.62292451 -74.52734375 165.5625 C-75.57851379 165.55094879 -76.62968384 165.53939758 -77.71270752 165.52749634 C-78.69342224 165.50762665 -79.67413696 165.48775696 -80.68457031 165.46728516 C-81.5461676 165.45396149 -82.40776489 165.44063782 -83.29547119 165.4269104 C-85.84529034 165.12362956 -87.46807961 164.50824317 -89.63671875 163.1484375 C-92.17893553 158.95377981 -92.36511847 153.91828083 -91.63671875 149.1484375 C-90.08451739 144.78892827 -88.0146546 142.46805193 -84.45678711 139.67749023 C-76.97610068 133.69007523 -70.60664532 128.19213419 -69.11767578 118.33251953 C-68.53766017 110.61298186 -68.84403873 102.93432467 -69.19921875 95.2109375 C-69.31382258 91.23727927 -69.37608042 87.26269896 -69.44065857 83.28794861 C-69.48917193 80.83410886 -69.56307329 78.38058411 -69.66737366 75.92848206 C-70.10471715 63.11455352 -66.23796459 53.55032629 -60.63671875 42.1484375 C-68.22566784 42.07878465 -75.81458359 42.02554885 -83.40377998 41.99300098 C-86.92815607 41.97737588 -90.45231269 41.95619606 -93.9765625 41.92211914 C-98.03257296 41.88314798 -102.08835455 41.86870227 -106.14453125 41.85546875 C-108.03390915 41.83224297 -108.03390915 41.83224297 -109.9614563 41.80854797 C-111.73261307 41.80820808 -111.73261307 41.80820808 -113.53955078 41.80786133 C-114.57435577 41.80119949 -115.60916077 41.79453766 -116.67532349 41.78767395 C-121.53154027 42.37926874 -124.52543312 44.04294253 -127.97937012 47.47888184 Z M-25.63671875 166.1484375 C-24.46945606 170.81748826 -23.26049997 172.07610124 -19.63671875 175.1484375 C-15.18703189 177.66712818 -11.75323933 178.69413177 -6.62890625 177.796875 C-1.80048853 176.22527237 1.58513299 173.3156599 4.36328125 169.1484375 C4.36328125 168.1584375 4.36328125 167.1684375 4.36328125 166.1484375 C-5.53671875 166.1484375 -15.43671875 166.1484375 -25.63671875 166.1484375 Z " fill="#000000" transform="translate(138.63671875,0.8515625)"/>
<path d="M0 0 C2.25 0.8125 2.25 0.8125 3.25 1.8125 C3.33726223 3.59321246 3.35699041 5.3773314 3.34765625 7.16015625 C3.34443359 8.23974609 3.34121094 9.31933594 3.33789062 10.43164062 C3.32951172 11.56794922 3.32113281 12.70425781 3.3125 13.875 C3.30798828 15.01517578 3.30347656 16.15535156 3.29882812 17.33007812 C3.28699747 20.15760351 3.2705141 22.9850264 3.25 25.8125 C4.36375 25.77125 5.4775 25.73 6.625 25.6875 C10.25 25.8125 10.25 25.8125 12.25 27.8125 C12.5 30.3125 12.5 30.3125 12.25 32.8125 C10.25 34.8125 10.25 34.8125 7.91162109 35.03955078 C6.95852051 35.02907715 6.00541992 35.01860352 5.0234375 35.0078125 C3.4765625 34.99814453 3.4765625 34.99814453 1.8984375 34.98828125 C0.81820312 34.97152344 -0.26203125 34.95476562 -1.375 34.9375 C-2.46296875 34.92847656 -3.5509375 34.91945312 -4.671875 34.91015625 C-7.36480152 34.88653409 -10.05729255 34.85359556 -12.75 34.8125 C-14.859375 30.1015625 -14.859375 30.1015625 -13.875 27.5 C-13.50375 26.943125 -13.1325 26.38625 -12.75 25.8125 C-10.44 25.8125 -8.13 25.8125 -5.75 25.8125 C-6.08 23.1725 -6.41 20.5325 -6.75 17.8125 C-9.06 17.4825 -11.37 17.1525 -13.75 16.8125 C-14.4453125 14.56640625 -14.4453125 14.56640625 -14.75 11.8125 C-11.8700158 7.00954498 -5.87364062 -0.4004755 0 0 Z " fill="#000000" transform="translate(188.75,42.1875)"/>
</svg>
