<svg xmlns="http://www.w3.org/2000/svg" enable-background="new 0 0 1600 1600" viewBox="0 0 1600 1600" id="login-form"><path d="M1544,447c-11.6,0-21-9.4-21-21V210H77v216c0,11.6-9.4,21-21,21s-21-9.4-21-21V189c0-11.6,9.4-21,21-21h1488c11.6,0,21,9.4,21,21v237C1565,437.6,1555.6,447,1544,447z"></path><path d="M1544 1432H56c-11.6 0-21-9.4-21-21V426c0-11.6 9.4-21 21-21h1488c11.6 0 21 9.4 21 21v985C1565 1422.6 1555.6 1432 1544 1432zM77 1390h1446V447H77V1390zM247.2 342.5h-8.4c-17 0-30.8-13.8-30.8-30.8v-8.4c0-17 13.8-30.8 30.8-30.8h8.4c17 0 30.8 13.8 30.8 30.8v8.4C278 328.7 264.2 342.5 247.2 342.5zM385.2 342.5h-8.4c-17 0-30.8-13.8-30.8-30.8v-8.4c0-17 13.8-30.8 30.8-30.8h8.4c17 0 30.8 13.8 30.8 30.8v8.4C416 328.7 402.2 342.5 385.2 342.5zM523.2 342.5h-8.4c-17 0-30.8-13.8-30.8-30.8v-8.4c0-17 13.8-30.8 30.8-30.8h8.4c17 0 30.8 13.8 30.8 30.8v8.4C554 328.7 540.2 342.5 523.2 342.5z"></path><g><path d="M1093,1327.1H507c-11.6,0-21-9.4-21-21v-142.4c0-11.6,9.4-21,21-21h586c11.6,0,21,9.4,21,21v142.4C1114,1317.7,1104.6,1327.1,1093,1327.1z M528,1285.1h544v-100.4H528V1285.1z"></path><circle cx="600.8" cy="1234.9" r="21.4"></circle><circle cx="684.6" cy="1234.9" r="21.4"></circle><circle cx="768.4" cy="1234.9" r="21.4"></circle><circle cx="852.2" cy="1234.9" r="21.4"></circle><circle cx="936.1" cy="1234.9" r="21.4"></circle><g><path d="M1093,1102.9H507c-11.6,0-21-9.4-21-21V939.5c0-11.6,9.4-21,21-21h586c11.6,0,21,9.4,21,21v142.4C1114,1093.5,1104.6,1102.9,1093,1102.9z M528,1060.9h544V960.5H528V1060.9z"></path></g><g><path d="M1013.1,1031.7H586.9c-11.6,0-21-9.4-21-21s9.4-21,21-21h426.2c11.6,0,21,9.4,21,21S1024.7,1031.7,1013.1,1031.7z"></path></g><g><path d="M800,878.7c-101.7,0-184.4-82.7-184.4-184.4S698.3,509.9,800,509.9s184.4,82.7,184.4,184.4S901.7,878.7,800,878.7z M800,551.9c-78.5,0-142.4,63.9-142.4,142.4S721.5,836.7,800,836.7s142.4-63.9,142.4-142.4S878.5,551.9,800,551.9z"></path><path d="M910.1,836c-9.7,0-18.4-6.7-20.5-16.5c-7.9-36.3-40.7-62.7-78-62.7h-23.2c-37.3,0-70,26.4-78,62.7c-2.5,11.3-13.7,18.5-25,16s-18.5-13.7-16-25c5.8-26.7,20.8-51,42.1-68.4c21.6-17.6,48.9-27.3,76.9-27.3h23.2c28,0,55.3,9.7,76.9,27.3c21.3,17.4,36.3,41.7,42.1,68.4c2.5,11.3-4.7,22.5-16,25C913,835.9,911.5,836,910.1,836z"></path><path d="M800,756.8c-46.3,0-83.9-37.6-83.9-83.9c0-46.3,37.6-83.9,83.9-83.9s83.9,37.6,83.9,83.9S846.3,756.8,800,756.8z M800,631c-23.1,0-41.9,18.8-41.9,41.9c0,23.1,18.8,41.9,41.9,41.9c23.1,0,41.9-18.8,41.9-41.9S823.1,631,800,631z"></path></g></g></svg>