<?xml version="1.0" encoding="UTF-8"?>
<svg version="1.1" xmlns="http://www.w3.org/2000/svg" width="256" height="256">
<path d="M0 0 C4.64968609 3.84878323 6.95029702 9.1610272 8 15 C8.18121931 22.50927527 6.14611439 27.78082841 2 34 C8.43937787 38.88404281 13.72238823 40.95645027 21.859375 40.609375 C26.78544543 39.65357029 30.25687124 37.24984823 34 34 C33.38125 33.154375 32.7625 32.30875 32.125 31.4375 C28.18830078 25.41336952 27.57338284 19.75164459 28.39453125 12.71875 C29.81217656 6.35306525 33.54086755 1.50944229 39 -2 C45.32939082 -5.47495966 51.38773988 -6.24575515 58.4296875 -4.34375 C64.78970308 -1.85970351 68.88854239 1.93704369 72.03125 7.984375 C74.96128619 14.98390589 74.31975996 20.82526529 71.94921875 27.88671875 C70.90673575 30.2076377 69.59240888 32.02398562 68 34 C68.73605469 34.44730469 69.47210938 34.89460938 70.23046875 35.35546875 C80.40142702 41.65689468 80.40142702 41.65689468 84 46 C84 46.66 84 47.32 84 48 C84.928125 47.7525 84.928125 47.7525 85.875 47.5 C93.62704808 46.25967231 99.72378506 46.44986376 106.73046875 50.30078125 C111.36827878 53.77315193 114.18738251 58.56214754 116 64 C116.8608412 73.5257018 115.19150548 79.21274179 110 87 C110.94875 87.28875 111.8975 87.5775 112.875 87.875 C116 89 116 89 118 91 C118.1875 94.0625 118.1875 94.0625 118 97 C117 98 117 98 114.5 98.3125 C111.18942123 98.01691261 109.65101512 97.4821457 106.75 96.0625 C98.72338615 92.28447908 90.37998329 92.16329758 82 95 C74.61649583 98.42961584 67.98116482 102.85499783 64.97265625 110.66796875 C64.22828244 113.10004723 63.56850311 115.52152591 63 118 C63.721875 118.70125 64.44375 119.4025 65.1875 120.125 C67.21020176 122.09167124 68.52102188 123.78153282 70.125 126.1875 C73.04665886 129.65251615 76.13677111 130.18018461 80.51953125 130.75390625 C95.05107372 131.78138905 109.8451675 132.16314237 123 125 C124.42538466 123.78190939 124.42538466 123.78190939 124.4375 120.1875 C124.4375 114.57339341 121.98997249 110.55423855 119.21484375 105.796875 C117.83879735 102.62887108 117.96640561 101.23662702 119 98 C121.97 97.505 121.97 97.505 125 97 C132.07106807 105.39832356 134.80573229 112.89561833 134.45703125 123.9765625 C133.8725852 127.84289791 132.91440309 129.90104346 130.08203125 132.57421875 C115.25659024 142.72672526 97.09323519 141.28477772 80 141 C80.20496094 141.59167969 80.40992188 142.18335938 80.62109375 142.79296875 C82.8496658 149.32940257 84.15940744 154.98452126 84.25 161.9375 C84.28867187 163.71447266 84.28867187 163.71447266 84.328125 165.52734375 C83.65221806 172.68069223 79.90706551 176.67688196 74.6171875 181.11328125 C59.45317557 192.04494955 36.54874613 193.20218281 18.4375 193.1875 C17.39408447 193.18669434 16.35066895 193.18588867 15.27563477 193.18505859 C-14.04440848 192.95559152 -14.04440848 192.95559152 -19 188 C-19.1875 185.5625 -19.1875 185.5625 -19 183 C-17 181 -17 181 -14.3125 180.98828125 C-13.219375 181.09527344 -12.12625 181.20226562 -11 181.3125 C-9.9275 181.41175781 -8.855 181.51101562 -7.75 181.61328125 C-5.74892675 181.81964193 -3.74807642 182.02891464 -1.74951172 182.25830078 C21.28461058 184.79311232 51.45920102 185.56034465 71 171 C73.78861316 168.06989273 74.4314532 166.08361942 74.4375 162.0625 C73.96712591 147.34371071 66.91322522 134.93017088 56.359375 124.99609375 C43.27266356 113.9243892 27.19482981 110.40996064 10.41455078 111.71337891 C-4.91787603 113.53342634 -18.09057619 121.25191357 -28 133 C-34.74796007 142.0223841 -38.90145371 153.21697251 -38.5390625 164.56640625 C-37.75414683 168.10990236 -35.8849671 169.94835565 -33.33984375 172.43359375 C-32 174 -32 174 -31.5625 177.375 C-32 180 -32 180 -33 181 C-35.625 181.5 -35.625 181.5 -39 181 C-42.85912198 178.08564232 -46.30158907 174.58327161 -48 170 C-48.89443371 160.3354695 -48.41254288 149.82508575 -44 141 C-44.91942383 141.02356567 -44.91942383 141.02356567 -45.85742188 141.04760742 C-81.66534264 141.84103274 -81.66534264 141.84103274 -96.125 130.5625 C-99.7129238 125.62112452 -98.6582579 118.72178017 -98 113 C-95.81640507 102.77158164 -88.48197312 95.15999282 -80.0625 89.375 C-76.34254144 87 -76.34254144 87 -74 87 C-74.34933594 86.45730469 -74.69867188 85.91460937 -75.05859375 85.35546875 C-75.51363281 84.64003906 -75.96867187 83.92460938 -76.4375 83.1875 C-76.88996094 82.47980469 -77.34242187 81.77210937 -77.80859375 81.04296875 C-80.90643186 75.73093815 -80.6167318 69.95690358 -80 64 C-77.95709413 56.85481214 -74.38185249 52.85118418 -68.0859375 49.05859375 C-61.97892342 45.95934129 -54.53791189 46.25655683 -48 48 C-47.73574219 47.401875 -47.47148438 46.80375 -47.19921875 46.1875 C-44.01984792 40.38799621 -37.66904088 37.00806251 -32 34 C-32.34933594 33.48050781 -32.69867188 32.96101563 -33.05859375 32.42578125 C-37.66403162 25.36758893 -37.66403162 25.36758893 -38 21 C-38.1546875 19.4221875 -38.1546875 19.4221875 -38.3125 17.8125 C-37.72492313 10.64406225 -35.47297194 4.91767535 -30.125 0 C-20.53426456 -7.49276206 -9.82838934 -6.61055368 0 0 Z M-26.3125 9.1875 C-28.48228387 12.80380644 -29.19881897 15.79166507 -29 20 C-27.59935409 24.20193774 -25.42676425 27.35583551 -21.8671875 30.07421875 C-17.98697241 31.99809109 -14.16498395 31.91458573 -10 31 C-6.31212662 29.13914646 -3.9134445 26.77573611 -2.0234375 23.1015625 C-0.53802231 18.57373066 -1.00995178 15.06925128 -2.96484375 10.76171875 C-5.01881337 7.26609499 -7.17667695 5.48532074 -11.11328125 4.4375 C-17.57572445 3.39482009 -21.48495788 4.6209061 -26.3125 9.1875 Z M39.6875 9.8125 C37.15382826 14.5983244 36.49768657 17.31577263 38.0625 22.5625 C40.17681363 26.31370161 42.0876877 29.13387614 46 31 C50.351656 31.94788546 54.16949728 32.01433362 58.12890625 29.8203125 C61.52634803 27.08249929 64.16400947 24.38895028 65 20 C64.92642014 15.364469 64.61309565 12.31902561 61.75 8.625 C58.19383148 5.2304755 55.89857709 4.20197629 51.0625 3.6875 C45.90919497 4.21334745 42.97723869 5.81146646 39.6875 9.8125 Z M-40 51 C-41.32051497 52.86259537 -41.32051497 52.86259537 -41 55 C-39.16026765 58.0929357 -39.16026765 58.0929357 -37 61 C-35.81318274 64.56045177 -35.90310168 67.43808337 -35.9375 71.1875 C-35.94652344 72.45980469 -35.95554687 73.73210937 -35.96484375 75.04296875 C-35.97644531 76.01878906 -35.98804688 76.99460938 -36 78 C-29.56971459 79.32388229 -23.5705166 80.24794402 -17 80 C-16.97421875 79.17757812 -16.9484375 78.35515625 -16.921875 77.5078125 C-16.23387103 63.96664349 -12.54554801 56.58070657 -3 47 C-2.41347656 46.41089844 -1.82695313 45.82179688 -1.22265625 45.21484375 C-0.81917969 44.81394531 -0.41570312 44.41304687 0 44 C-14.00044923 37.14871634 -28.88949297 40.16048095 -40 51 Z M36 44 C36.78375 44.78375 37.5675 45.5675 38.375 46.375 C43 51 43 51 43.125 53.625 C43.08375 54.40875 43.0425 55.1925 43 56 C40.01380901 56.90792802 38.59164305 57.30148072 35.75390625 55.85546875 C35.03074219 55.30503906 34.30757812 54.75460938 33.5625 54.1875 C26.90704572 49.46957106 21.11158155 48.0562372 13 49 C4.8592304 51.02609318 -0.71749659 55.02267286 -5.31640625 61.99609375 C-8.67003305 68.36447913 -8.97541615 74.94962365 -8 82 C-5.35228269 90.5289301 -0.34950869 95.66415274 7.375 99.8125 C15.54222502 102.48797027 22.04461602 102.51576647 30 99 C36.45713469 95.36503956 41.27084871 90.24182971 43.62109375 83.1171875 C44.91627986 75.88016821 44.06943628 68.21869489 43 61 C43 60.34 43 59.68 43 59 C46.375 59.625 46.375 59.625 50 61 C51.89328505 65.23497971 52.34347957 69.27683296 52.625 73.875 C52.69976562 75.02742188 52.77453125 76.17984375 52.8515625 77.3671875 C52.90054688 78.23601562 52.94953125 79.10484375 53 80 C59.5705166 80.24794402 65.56971459 79.32388229 72 78 C71.94199219 77.11699219 71.88398438 76.23398438 71.82421875 75.32421875 C71.49678156 66.6143894 72.67127689 60.57526545 77 53 C71.74645032 45.33857338 64.18487821 42.0545515 55.3125 40.25 C48.75962196 39.53031975 41.76593917 40.80717854 36 44 Z M-70 63 C-71.24283781 66.72851342 -71.5280726 70.12746761 -71 74 C-68.77915243 78.35944153 -66.57923841 81.16830464 -62 83 C-57.29334747 83.70599788 -53.9411873 83.45316426 -49.625 81.375 C-45.65350911 77.78174634 -44.22498523 74.79988182 -43.5625 69.5 C-44.25354691 63.9716247 -46.62556724 61.16063211 -50.8125 57.625 C-58.44468458 53.73408237 -64.77070322 56.66979864 -70 63 Z M84 60 C81.23376777 63.27580133 80.09598166 65.2321467 79.5625 69.5 C80.22498523 74.79988182 81.65350911 77.78174634 85.625 81.375 C89.94017237 83.45267558 93.29380332 83.83497038 98 83 C102.38410756 80.80794622 105.13092657 78.56884617 107 74 C107.58075783 70.03148815 107.40913488 66.94747025 105.8125 63.25 C103.31136766 60.14514606 100.57326648 57.78663324 97 56 C91.29286917 55.45123742 88.3846367 56.2974179 84 60 Z M-41 86 C-38.05664397 88.209245 -38.05664397 88.209245 -35.0703125 90.359375 C-27.10995724 96.04991009 -22.52523032 101.85513781 -19 111 C-14.94180817 110.34496718 -11.46028718 109.05440879 -7.6875 107.4375 C-6.08455078 106.75494141 -6.08455078 106.75494141 -4.44921875 106.05859375 C-3.64097656 105.70925781 -2.83273438 105.35992187 -2 105 C-2.70125 104.34 -3.4025 103.68 -4.125 103 C-8.16241705 98.96258295 -12.18148689 94.45553932 -14 89 C-27.365 87.515 -27.365 87.515 -41 86 Z M62.125 86.875 C61.03574219 86.9471875 59.94648438 87.019375 58.82421875 87.09375 C52.85974527 87.58947831 52.85974527 87.58947831 48.26196289 91.01635742 C47.03786009 93.30295067 46.02427822 95.61936178 45 98 C42.98046875 100.19140625 42.98046875 100.19140625 41.1875 101.5625 C40.58292969 102.03816406 39.97835937 102.51382813 39.35546875 103.00390625 C38.90816406 103.33261719 38.46085938 103.66132813 38 104 C40.787165 105.85811 43.46303 107.22897347 46.5 108.625 C47.4590625 109.07101563 48.418125 109.51703125 49.40625 109.9765625 C52.00037577 111.18351947 52.00037577 111.18351947 55 111 C55.35191406 110.21496094 55.70382813 109.42992187 56.06640625 108.62109375 C61.11108417 97.88633525 66.38503662 92.22323595 77 87 C72.07733995 85.35911332 67.22590771 86.35951461 62.125 86.875 Z M-82.375 103.375 C-87.16716059 109.1599588 -89.73771201 114.30240871 -89.3984375 121.98828125 C-89.11381225 124.22643946 -89.11381225 124.22643946 -87.125 126.375 C-73.53028597 133.44425129 -54.12225816 134.1712242 -39.23046875 131.03125 C-35.56593262 129.33696359 -33.68185803 126.52400978 -31.53515625 123.19140625 C-29.92522047 120.89325365 -28.31566461 119.55544642 -26 118 C-27.62128236 109.91047654 -30.64714631 104.3433312 -37 99 C-52.19215379 89.05300522 -69.69449275 89.79204789 -82.375 103.375 Z " fill="#000000" transform="translate(110,34)"/>
<path d="M0 0 C2.875 -0.125 2.875 -0.125 6 0 C6.66 0.66 7.32 1.32 8 2 C7.44444444 6.55555556 7.44444444 6.55555556 6 8 C3 8.125 3 8.125 0 8 C-0.33 7.67 -0.66 7.34 -1 7 C-0.71269945 4.66055264 -0.38063221 2.3260857 0 0 Z " fill="#000000" transform="translate(81,212)"/>
</svg>
