<?xml version="1.0" standalone="no"?>
<!DOCTYPE svg PUBLIC "-//W3C//DTD SVG 20010904//EN"
 "http://www.w3.org/TR/2001/REC-SVG-20010904/DTD/svg10.dtd">
<svg version="1.0" xmlns="http://www.w3.org/2000/svg"
 width="256.000000pt" height="256.000000pt" viewBox="0 0 256.000000 256.000000"
 preserveAspectRatio="xMidYMid meet">

<g transform="translate(0.000000,256.000000) scale(0.100000,-0.100000)"
fill="#000000" stroke="none">
<path d="M73 2354 c-18 -9 -42 -31 -53 -49 -20 -32 -20 -49 -20 -1025 0 -978
0 -993 20 -1025 43 -69 -39 -65 1260 -65 1299 0 1217 -4 1260 65 20 32 20 47
20 1025 0 978 0 993 -20 1025 -43 69 39 65 -1262 65 -1054 0 -1176 -2 -1205
-16z m137 -134 l0 -70 -65 0 -65 0 0 52 c0 69 18 88 82 88 l48 0 0 -70z m1630
0 l0 -70 -772 2 -773 3 -3 54 c-2 29 -1 60 2 67 5 12 133 14 776 14 l770 0 0
-70z m210 0 l0 -70 -65 0 -65 0 0 70 0 70 65 0 65 0 0 -70z m215 0 l0 -65 -65
0 -65 0 -3 68 -3 68 68 -3 68 -3 0 -65z m197 53 c13 -12 18 -30 18 -70 l0 -53
-65 0 -65 0 0 70 0 70 47 0 c29 0 53 -6 65 -17z m18 -1085 c0 -806 -1 -883
-17 -900 -15 -17 -65 -18 -1181 -18 -1070 0 -1167 1 -1184 17 -17 15 -18 56
-18 900 l0 883 1200 0 1200 0 0 -882z"/>
<path d="M975 1818 c-165 -44 -308 -87 -317 -96 -23 -20 -23 -47 0 -70 11 -11
74 -33 149 -52 l131 -34 4 -108 c5 -163 -18 -153 338 -153 357 0 333 -11 338
154 l4 108 44 10 44 10 0 -123 c0 -67 3 -129 6 -138 4 -9 18 -16 34 -16 16 0
30 7 34 16 3 9 6 75 6 149 l0 133 57 18 c46 15 60 25 67 47 17 49 -6 59 -319
142 -159 42 -297 78 -305 80 -8 2 -150 -33 -315 -77z m552 -68 c125 -33 228
-62 229 -63 2 -2 -105 -32 -236 -66 l-240 -64 -241 64 c-132 35 -234 66 -227
68 51 19 439 119 461 120 15 1 130 -26 254 -59z m-359 -246 l112 -29 113 29
c61 16 120 31 130 34 16 4 18 -3 15 -74 l-3 -79 -255 0 -255 0 -3 79 c-3 71
-1 78 15 74 10 -3 69 -18 131 -34z"/>
<path d="M1715 1230 c-4 -12 -1 -27 5 -35 27 -33 78 -5 65 35 -4 14 -15 20
-35 20 -20 0 -31 -6 -35 -20z"/>
<path d="M503 1145 c-30 -15 -61 -41 -77 -63 -25 -37 -46 -115 -46 -173 0 -16
-9 -38 -20 -49 -17 -17 -20 -33 -20 -98 0 -104 22 -173 71 -227 123 -133 326
-104 411 59 17 32 23 63 26 147 4 97 2 108 -15 120 -15 11 -21 31 -26 88 -8
100 -41 156 -116 194 -69 34 -121 35 -188 2z m158 -78 c45 -30 69 -80 69 -144
l0 -53 -130 0 -130 0 0 65 c0 74 15 106 65 136 40 25 85 24 126 -4z m109 -337
c0 -33 -6 -75 -14 -93 -18 -44 -78 -95 -121 -103 -121 -22 -214 64 -215 199
l0 57 175 0 175 0 0 -60z"/>
<path d="M567 733 c-4 -3 -7 -25 -7 -48 0 -48 18 -70 49 -60 25 8 38 64 22 94
-11 20 -50 29 -64 14z"/>
<path d="M1095 1083 c-11 -3 -30 -14 -42 -26 -20 -18 -23 -30 -23 -96 1 -83
10 -104 54 -121 18 -6 209 -10 537 -10 555 0 569 1 589 55 15 39 12 122 -5
155 -10 20 -27 32 -53 39 -37 11 -1015 14 -1057 4z m1043 -125 l-3 -43 -512
-3 -513 -2 0 45 0 45 516 0 515 0 -3 -42z"/>
<path d="M1056 719 c-24 -19 -26 -26 -26 -100 0 -85 13 -112 62 -124 13 -3
260 -4 550 -3 524 3 528 3 549 24 40 40 38 166 -3 204 -21 19 -36 20 -564 20
-532 0 -542 0 -568 -21z m1084 -104 l0 -45 -515 0 -515 0 0 45 0 45 515 0 515
0 0 -45z"/>
</g>
</svg>
