<?xml version="1.0" standalone="no"?>
<!DOCTYPE svg PUBLIC "-//W3C//DTD SVG 20010904//EN"
 "http://www.w3.org/TR/2001/REC-SVG-20010904/DTD/svg10.dtd">
<svg version="1.0" xmlns="http://www.w3.org/2000/svg"
 width="256.000000pt" height="256.000000pt" viewBox="0 0 256.000000 256.000000"
 preserveAspectRatio="xMidYMid meet">

<g transform="translate(0.000000,256.000000) scale(0.100000,-0.100000)"
fill="#000000" stroke="none">
<path d="M1149 2542 c-77 -21 -119 -45 -119 -71 0 -38 22 -42 100 -15 65 23
87 26 171 22 87 -3 104 -7 171 -41 117 -57 200 -159 232 -282 94 -357 -275
-663 -610 -506 -245 115 -330 430 -173 648 37 52 36 87 -2 91 -22 3 -32 -6
-62 -50 -19 -29 -42 -70 -50 -90 l-16 -38 -348 0 c-323 0 -350 -1 -379 -19
-68 -41 -64 19 -64 -1088 0 -978 0 -999 20 -1031 11 -18 34 -41 52 -52 32 -20
53 -20 1208 -20 1155 0 1176 0 1208 20 18 11 41 34 52 52 20 32 20 53 20 1031
0 1107 4 1047 -64 1088 -29 18 -56 19 -378 19 l-347 0 -32 66 c-105 213 -357
326 -590 266z m-380 -496 c0 -86 9 -132 46 -228 7 -17 -15 -18 -364 -18 l-371
0 0 154 c0 149 1 155 22 170 19 14 69 16 344 16 l322 0 1 -94z m1689 78 c21
-15 22 -21 22 -170 l0 -154 -371 0 c-349 0 -371 1 -364 18 37 96 46 142 46
228 l1 94 322 0 c275 0 325 -2 344 -16z m-1531 -453 c211 -188 495 -188 706 0
l55 49 396 0 396 0 0 -809 c0 -740 -1 -810 -17 -822 -24 -21 -2342 -21 -2366
0 -16 12 -17 82 -17 822 l0 809 396 0 396 0 55 -49z"/>
<path d="M400 1299 c-72 -29 -120 -110 -120 -202 0 -85 29 -141 95 -182 l48
-30 670 0 c627 0 671 1 681 18 8 12 8 22 0 35 -10 16 -57 17 -675 22 -523 4
-669 8 -687 18 -85 48 -80 201 8 244 32 17 95 18 860 18 765 0 828 -1 860 -18
89 -44 94 -190 7 -242 -25 -16 -50 -20 -122 -20 -94 0 -115 -8 -115 -42 0 -31
37 -41 137 -36 80 5 100 9 140 34 138 85 119 327 -30 383 -38 15 -1721 14
-1757 0z"/>
<path d="M588 1129 c-21 -12 -23 -40 -6 -57 17 -17 1379 -17 1396 0 18 18 14
46 -7 58 -27 14 -1359 13 -1383 -1z"/>
<path d="M415 738 c-86 -30 -135 -105 -135 -204 1 -97 42 -165 122 -199 33
-13 142 -15 880 -15 796 0 845 1 883 19 81 37 120 111 113 217 -5 77 -41 136
-103 168 -40 21 -49 21 -885 23 -573 1 -855 -2 -875 -9z m1739 -89 c75 -59 74
-184 -2 -236 -26 -17 -73 -18 -872 -18 -799 0 -846 1 -872 18 -76 52 -77 177
-2 236 27 21 30 21 874 21 844 0 847 0 874 -21z"/>
<path d="M581 556 c-21 -26 -9 -51 24 -51 27 0 30 3 30 30 0 23 -5 31 -21 33
-11 2 -26 -4 -33 -12z"/>
<path d="M771 556 c-21 -25 -4 -58 27 -54 23 2 27 8 27 33 0 23 -5 31 -21 33
-11 2 -26 -4 -33 -12z"/>
<path d="M964 556 c-11 -28 1 -51 28 -54 31 -4 48 29 28 53 -16 19 -49 19 -56
1z"/>
<path d="M1154 556 c-3 -8 -4 -23 -2 -33 5 -25 61 -25 66 0 7 37 -51 67 -64
33z"/>
<path d="M1351 556 c-21 -26 -9 -51 24 -51 27 0 30 3 30 30 0 23 -5 31 -21 33
-11 2 -26 -4 -33 -12z"/>
<path d="M1541 556 c-21 -25 -4 -58 27 -54 23 2 27 8 27 33 0 23 -5 31 -21 33
-11 2 -26 -4 -33 -12z"/>
<path d="M1734 556 c-11 -28 1 -51 28 -54 31 -4 48 29 28 53 -16 19 -49 19
-56 1z"/>
<path d="M1924 556 c-3 -8 -4 -23 -2 -33 5 -25 61 -25 66 0 7 37 -51 67 -64
33z"/>
<path d="M1223 2335 c-49 -21 -73 -68 -73 -142 0 -53 -3 -63 -20 -68 -11 -3
-29 -18 -40 -32 -18 -23 -20 -40 -20 -152 1 -178 4 -181 210 -181 206 0 209 3
210 181 0 112 -2 129 -20 152 -11 14 -29 29 -40 32 -17 5 -20 15 -20 68 0 75
-24 122 -75 143 -43 17 -71 17 -112 -1z m99 -82 c13 -12 18 -30 18 -70 l0 -53
-60 0 -60 0 0 52 c0 59 19 88 58 88 14 0 34 -7 44 -17z m98 -307 c0 -85 -3
-105 -16 -110 -20 -8 -228 -8 -248 0 -13 5 -16 25 -16 110 l0 104 140 0 140 0
0 -104z"/>
<path d="M1251 1962 c-12 -23 4 -52 29 -52 25 0 41 30 29 53 -13 22 -46 22
-58 -1z"/>
</g>
</svg>
