<?xml version="1.0" standalone="no"?>
<!DOCTYPE svg PUBLIC "-//W3C//DTD SVG 20010904//EN"
 "http://www.w3.org/TR/2001/REC-SVG-20010904/DTD/svg10.dtd">
<svg version="1.0" xmlns="http://www.w3.org/2000/svg"
 width="256.000000pt" height="256.000000pt" viewBox="0 0 256.000000 256.000000"
 preserveAspectRatio="xMidYMid meet">

<g transform="translate(0.000000,256.000000) scale(0.100000,-0.100000)"
fill="#000000" stroke="none">
<path d="M1142 2540 c-200 -54 -353 -198 -419 -395 l-27 -80 -1 -360 c0 -342
1 -362 20 -394 38 -64 64 -75 190 -81 l113 -5 -191 -100 c-210 -110 -284 -169
-339 -271 -53 -99 -58 -139 -58 -495 0 -284 2 -330 16 -343 14 -14 103 -16
834 -16 731 0 820 2 834 16 14 13 16 59 16 343 0 356 -5 396 -58 495 -55 102
-129 161 -339 271 l-191 100 113 5 c126 6 152 17 190 81 19 32 20 52 20 394 0
402 -1 412 -73 549 -119 228 -404 353 -650 286z m260 -106 c176 -45 319 -201
348 -380 6 -32 10 -200 10 -371 0 -382 12 -353 -150 -353 -60 0 -110 3 -110 8
0 4 15 17 34 29 89 57 155 181 169 318 17 155 1 185 -101 185 -117 0 -285 45
-334 89 -18 16 -37 46 -43 67 -14 49 -53 68 -85 39 -11 -10 -20 -29 -20 -43 0
-14 -11 -44 -25 -67 -27 -47 -74 -75 -139 -82 -73 -8 -95 -21 -102 -62 -12
-62 9 -210 39 -275 32 -70 86 -139 133 -169 19 -12 34 -25 34 -29 0 -5 -49 -8
-110 -8 -165 0 -152 -34 -148 388 l3 347 29 70 c98 239 331 361 568 299z
m-177 -578 c59 -41 171 -72 328 -91 l47 -6 0 -42 c0 -98 -52 -207 -125 -262
-111 -85 -279 -85 -391 0 -74 57 -131 185 -122 275 3 31 7 35 38 41 51 8 109
38 144 75 17 18 34 33 38 33 4 1 23 -10 43 -23z m161 -615 c-3 -24 -11 -61
-16 -82 l-11 -39 -79 0 -79 0 -11 39 c-5 21 -13 58 -16 82 l-6 45 112 0 112 0
-6 -45z m-251 -314 c25 -109 48 -210 52 -225 5 -21 -11 -11 -95 62 -56 49
-102 90 -102 93 0 3 18 25 40 49 22 24 40 48 40 54 0 6 -23 35 -51 65 l-51 54
59 29 c32 17 59 27 60 24 1 -4 23 -96 48 -205z m406 98 c-28 -30 -51 -59 -51
-65 0 -6 18 -30 40 -54 22 -24 40 -45 40 -48 0 -7 -191 -171 -195 -167 -1 2
20 104 48 226 l51 221 59 -29 59 -30 -51 -54z m-636 -35 l29 -30 -36 -38 c-39
-41 -50 -65 -42 -87 3 -8 89 -85 190 -171 l184 -158 0 -198 0 -198 -190 0
-190 0 0 210 0 210 -50 0 -50 0 0 -210 0 -210 -110 0 -110 0 0 253 c0 138 4
278 10 310 22 135 97 232 235 304 44 23 85 43 91 43 5 0 23 -14 39 -30z m878
-12 c140 -73 215 -169 237 -305 6 -32 10 -172 10 -310 l0 -253 -110 0 -110 0
0 210 0 210 -50 0 -50 0 0 -210 0 -210 -190 0 -190 0 0 198 0 198 184 158
c101 86 187 164 190 172 8 20 -8 50 -47 91 l-31 33 29 30 c16 16 33 30 38 30
5 0 46 -19 90 -42z m-453 25 c1 -19 -45 -213 -50 -213 -5 0 -51 194 -50 213 0
4 23 7 50 7 28 0 50 -3 50 -7z"/>
</g>
</svg>
