<svg xmlns="http://www.w3.org/2000/svg" width="50" height="50" viewBox="0 0 50 50" version="1.1"><path d="" stroke="none" fill="#080404" fill-rule="evenodd"/><path d="M 15.500 3.879 C -1.972 11.894, -2.690 36.996, 14.309 45.467 C 20.539 48.571, 28.591 48.832, 34.500 46.121 C 52.500 37.864, 52.500 12.136, 34.500 3.879 C 29.299 1.493, 20.701 1.493, 15.500 3.879 M 20.358 4.932 C 7.303 8.135, 0.540 23.293, 7.022 34.825 C 9.535 39.296, 10.223 39.413, 16.187 36.380 C 20.106 34.387, 20.393 33.331, 18.079 29.410 C 16.525 26.776, 16 24.175, 16 19.117 C 16 13.335, 16.337 12.032, 18.314 10.174 C 21.851 6.852, 27.931 7.199, 31.949 10.953 C 35.039 13.839, 35.094 14.046, 34.403 20.153 C 34.014 23.589, 32.829 27.870, 31.769 29.667 C 29.608 33.330, 29.936 34.409, 33.813 36.380 C 39.777 39.413, 40.465 39.296, 42.978 34.825 C 51.419 19.806, 37.063 0.835, 20.358 4.932" stroke="none" fill="#040404" fill-rule="evenodd"/></svg>