<svg xmlns="http://www.w3.org/2000/svg" viewBox="0 0 64 64" id="user-identity"><path d="M33 9h7c1.10254 0 2 .89697 2 2v7c.01904 1.30981 1.97876 1.31763 2-.00006 0 .00006 0-6.99994 0-6.99994 0-2.20557-1.79395-4-4-4h-7c-1.31128.02258-1.31738 1.97668 0 2zM6 47h7c.55273 0 1-.44727 1-1s-.44727-1-1-1h-7c-1.10254 0-2-.89746-2-2v-7c-.0188-1.30994-1.979-1.31775-2 .00006 0-.00006 0 6.99994 0 6.99994 0 2.20605 1.79395 4 4 4zM17 21.99951c-1.30969.02167-1.31659 1.96814-.00781 2 .29529 7.93903 11.72412 7.94244 12.00781.00037 0 .00012 0-1.99988 0-1.99988-.28088-7.94006-11.71899-7.93982-12-.00049zm8.45825-3.13123c.93164.73303 1.54175 1.85712 1.54175 3.13171v2c-.19336 5.40698-8.05139 5.22144-8-.18909 2.82642-.42969 5.7146-2.24988 6.45825-4.94263zm-3.85571 1.87781c-.73267.47992-1.62744.81732-2.57935 1.02502.10938-2.2901 2.2655-4.11676 4.56226-3.71191-.19885 1.00458-.8999 1.97595-1.98291 2.68689z"></path><path d="m12,43h16c1.3125-.02112,1.31616-1.97821,0-2h-14.49902c-.06787-3.83905,2.72485-7.211,6.79492-8.29492,1.67188.8623,3.75586.8584,5.41602.00098,1.05957.11896,2.41748,1.53375,3.18262.25104.62915-1.60645-2.02979-1.90839-3.09766-2.2912-.25293-.06042-.52539-.0155-.74902.12122-1.22559.75098-2.84766.76074-4.08496,0-.22266-.13574-.48828-.18262-.74512-.12207-5.1626,1.17682-8.76501,5.41559-8.71594,10.28461-1.96899-.24835-3.50183-1.91418-3.50183-3.94965v-20c0-2.20557,1.79395-4,4-4h22c2.20605,0,4,1.79443,4,4v8c.01416,1.30963,1.98218,1.31622,2-.00006,0,.00006,0-7.99994,0-7.99994,0-3.30859-2.69141-6-6-6H12c-3.30859,0-6,2.69141-6,6v20c0,3.30859,2.69141,6,6,6Z"></path><path d="m57,27h-22c-2.75684,0-5,2.24316-5,5v20c0,2.75684,2.24316,5,5,5h22c2.75684,0,5-2.24316,5-5v-20c0-2.75684-2.24316-5-5-5Zm3,25c0,1.6543-1.3457,3-3,3h-22c-1.6543,0-3-1.3457-3-3v-20c0-1.6543,1.3457-3,3-3h22c1.6543,0,3,1.3457,3,3v20Z"></path><path d="M56 33h-16c-1.30957.0202-1.31848 1.97791 0 2h16c1.30957-.0202 1.31848-1.97797 0-2zM56 38h-16c-1.30957.0202-1.31848 1.97791 0 2h16c1.30957-.0202 1.31848-1.97797 0-2zM52 43h-12c-.55273 0-1 .44727-1 1s.44727 1 1 1h12c1.31091-.02063 1.31738-1.97809 0-2zM52 48h-12c-.55273 0-1 .44727-1 1s.44727 1 1 1h12c1.31091-.02063 1.31738-1.97809 0-2zM36 38c-1.3136.02545-1.31348 1.97473 0 2 1.3136-.02545 1.31348-1.97473 0-2zM36 33c-1.3136.02545-1.31348 1.97473 0 2 1.3136-.02545 1.31348-1.97473 0-2zM36 48c-1.3136.02545-1.31348 1.97473 0 2 1.3136-.02545 1.31348-1.97473 0-2zM36 43c-1.3136.02545-1.31348 1.97473 0 2 1.3136-.02545 1.31348-1.97473 0-2z"></path></svg>