<?xml version="1.0" encoding="UTF-8"?>
<svg version="1.1" xmlns="http://www.w3.org/2000/svg" width="512" height="512">
<path d="M0 0 C1.36182625 -0.003743 2.72365035 -0.00834709 4.08547109 -0.01373065 C7.80400307 -0.02589619 11.52244464 -0.02570783 15.24099195 -0.02334189 C19.26096106 -0.02293208 23.28090181 -0.03398865 27.30085754 -0.04345703 C35.16860279 -0.06003341 43.03631807 -0.06556509 50.90407933 -0.06668179 C57.30434778 -0.06763401 63.7046064 -0.07175303 70.10487175 -0.07808304 C88.27640089 -0.09568755 106.44790647 -0.10492334 124.6194442 -0.10342209 C125.5980194 -0.10334218 126.57659461 -0.10326227 127.58482361 -0.10317993 C129.0544924 -0.10305729 129.0544924 -0.10305729 130.55385148 -0.10293217 C146.42032768 -0.10211986 162.28670882 -0.12124569 178.15315754 -0.14945666 C194.46981202 -0.17823762 210.78642023 -0.19199404 227.10310072 -0.19026911 C236.25350838 -0.18960693 245.40381642 -0.19502343 254.55420113 -0.21662521 C262.34738472 -0.23490591 270.14042355 -0.23912826 277.93361939 -0.22560637 C281.90339364 -0.2191108 285.87289074 -0.21883452 289.84263802 -0.23631287 C327.43897852 -0.39155697 327.43897852 -0.39155697 342.78330994 8.07992554 C343.43960388 8.42611938 344.09589783 8.77231323 344.77207947 9.1289978 C364.61025942 19.80978014 380.56509383 36.13759928 387.51389313 57.93083763 C389.96515149 67.30980362 390.92521507 76.02852799 390.86338806 85.75814819 C390.86882812 87.22859381 390.87596119 88.69903397 390.8846283 90.16946411 C390.90262526 94.10695051 390.89589819 98.04401063 390.88311195 101.98150301 C390.87287912 106.12397059 390.88240405 110.26640528 390.88865662 114.40887451 C390.89589531 121.34990916 390.88643687 128.29077246 390.86729431 135.23178101 C390.8454467 143.24600321 390.85264894 151.25981953 390.87459993 159.27403224 C390.89275986 166.18228231 390.89531197 173.09041043 390.88484526 179.99867666 C390.87862457 184.11341921 390.87773703 188.22797083 390.89099121 192.34270096 C390.90256092 196.20241333 390.89450426 200.0616012 390.87141418 203.92125702 C390.86613669 205.3345668 390.8676245 206.74792093 390.87646484 208.16121292 C390.9514752 221.37209955 390.9514752 221.37209955 386.34580994 226.26742554 C380.89992447 231.29439674 376.21769349 232.75395848 368.90830994 232.57992554 C363.26924893 231.89223517 359.08183283 229.42470365 355.40830994 225.14242554 C341.81838022 206.19888714 352.34580994 178.58145215 352.34580994 155.26742554 C220.67580994 155.26742554 89.00580994 155.26742554 -46.65419006 155.26742554 C-46.57169006 195.09430054 -46.48919006 234.92117554 -46.40419006 275.95492554 C-46.38839905 288.52288208 -46.37260803 301.09083862 -46.3563385 314.03964233 C-46.32311204 325.32130539 -46.32311204 325.32130539 -46.28462219 336.60295105 C-46.26764097 341.62157696 -46.26175744 346.6400832 -46.26264954 351.65873718 C-46.26342269 358.06875907 -46.24506364 364.47846323 -46.21310091 370.88840258 C-46.20460874 373.23558806 -46.20272632 375.58280945 -46.20836592 377.93000352 C-46.24529919 395.53649239 -45.26828334 410.61619632 -32.77528381 424.32992554 C-24.51937216 432.0688003 -14.05104885 436.49734191 -2.72840881 436.53866577 C-2.07538788 436.54389252 -1.42236694 436.54911926 -0.7495575 436.55450439 C0.65536627 436.56467303 2.06032694 436.57051221 3.46528625 436.57238579 C5.69427218 436.57607887 7.92282475 436.5928834 10.15171814 436.61314392 C16.4842369 436.66828433 22.81681707 436.69923022 29.14952087 436.72372437 C33.03512624 436.73965262 36.9204194 436.76991948 40.80586243 436.80848885 C42.27931898 436.82008523 43.75283144 436.82606872 45.22633362 436.82616997 C47.29122818 436.82636337 49.35526789 436.84472394 51.42002869 436.86679077 C52.59138367 436.87186142 53.76273865 436.87693207 54.96958923 436.88215637 C61.42823819 437.6191693 66.19063239 440.16249312 70.34580994 445.26742554 C72.8573326 450.29047086 72.65089739 454.92232472 71.34580994 460.26742554 C68.83932949 465.37678952 65.50668417 468.04176183 60.34580994 470.26742554 C56.82687378 470.76863098 56.82687378 470.76863098 53.0721283 470.76913452 C52.38158356 470.77453751 51.69103882 470.77994049 50.97956848 470.7855072 C48.71448298 470.79793104 46.45068575 470.78153547 44.18565369 470.76351929 C42.59251845 470.76367455 40.99938285 470.765168 39.40625 470.76792908 C36.06993363 470.76931066 32.73404833 470.75680556 29.39781189 470.73397827 C25.16065671 470.7057562 20.92422576 470.70828989 16.68701839 470.72106838 C13.39488761 470.72809307 10.10291832 470.72015717 6.81080818 470.70781136 C5.25100389 470.70335089 3.6911819 470.70291173 2.13137627 470.70687675 C-21.42261611 470.73869883 -40.65678104 464.20996132 -57.84169006 447.57992554 C-74.16167305 431.08809844 -79.98330006 410.06610824 -79.91488647 387.43482971 C-79.91791302 386.06587797 -79.92180501 384.69692792 -79.92647904 383.32798082 C-79.93670306 379.59451016 -79.93459161 375.86113614 -79.93029845 372.12765777 C-79.92782098 368.09004376 -79.93685803 364.0524524 -79.94433594 360.0148468 C-79.95705684 352.11548844 -79.95887988 344.2161641 -79.95653567 336.31679722 C-79.95474937 329.89269061 -79.95650884 323.46859429 -79.96076012 317.04448891 C-79.9616529 315.67065777 -79.9616529 315.67065777 -79.96256372 314.26907248 C-79.96377553 312.40816559 -79.96498966 310.5472587 -79.9662061 308.68635181 C-79.97707166 291.25161847 -79.97492385 273.81690449 -79.96882125 256.38217006 C-79.9636534 240.45231516 -79.97490581 224.52252143 -79.99391947 208.59267863 C-80.01331831 192.21385727 -80.02155025 175.83506481 -80.01779622 159.45623189 C-80.01588722 150.26962572 -80.01834225 141.0830716 -80.03251076 131.89647484 C-80.04445165 124.07543192 -80.04579919 116.2544731 -80.03372059 108.43342897 C-80.02785077 104.44786403 -80.02667956 100.4624527 -80.03872299 96.47689819 C-80.04964594 92.81945418 -80.04640326 89.16229084 -80.03246131 85.5048596 C-80.0285983 83.57415227 -80.03930886 81.64343216 -80.05075818 79.71275491 C-79.91166075 56.98367113 -71.68039695 37.20655159 -55.90419006 20.95492554 C-40.38507362 5.67136047 -21.26680672 -0.05281328 0 0 Z M-37.65419006 51.82992554 C-52.88950917 72.49799409 -46.65419006 98.86481266 -46.65419006 123.26742554 C85.01580994 123.26742554 216.68580994 123.26742554 352.34580994 123.26742554 C355.22801077 81.37313314 355.22801077 81.37313314 338.39659119 46.11508179 C329.74276769 38.31839891 319.42777552 33.15473086 307.71967983 33.13320446 C306.59198821 33.12874662 305.46429658 33.12428877 304.30243248 33.11969584 C302.45139249 33.11997239 302.45139249 33.11997239 300.56295776 33.12025452 C299.24816502 33.11657783 297.93337227 33.11290114 296.57873732 33.10911304 C292.93049155 33.09911255 289.28226224 33.09537939 285.63400471 33.09272373 C281.69857724 33.08881488 277.76316272 33.07923695 273.82774353 33.07051086 C264.3243139 33.05076291 254.82088323 33.04068239 245.31743822 33.03178307 C240.8395907 33.02739746 236.36174436 33.02203136 231.88389778 33.0167942 C216.9942636 32.99978364 202.10463016 32.98529008 187.21498775 32.97804546 C183.35242652 32.97613564 179.48986529 32.9742153 175.62730408 32.97225952 C174.66731074 32.97177578 173.7073174 32.97129204 172.71823335 32.97079364 C157.17139175 32.96249558 141.62462715 32.93716166 126.07781916 32.90467884 C110.10826613 32.87158538 94.13875221 32.85359464 78.16916472 32.85040122 C69.20607036 32.84823825 60.24308828 32.83952079 51.28002739 32.81394005 C43.64578685 32.7922018 36.01168589 32.78419797 28.37741791 32.79390683 C24.48525025 32.7984425 20.59337038 32.79660841 16.70124245 32.77714539 C13.13118467 32.75944781 9.56162322 32.76056405 5.99155969 32.77604268 C4.1028143 32.7795213 2.21406329 32.76344174 0.32539123 32.74643821 C-16.13179809 32.86967036 -27.4128105 39.2231512 -37.65419006 51.82992554 Z " fill="#000000" transform="translate(100.65419006347656,20.732574462890625)"/>
<path d="M0 0 C3.54121337 3.08787747 6.94220214 6.30773471 10.32080078 9.57324219 C11.25537109 10.45625 12.18994141 11.33925781 13.15283203 12.24902344 C28.86946526 27.43810534 40.14810353 45.85643952 49.32080078 65.57324219 C49.74361328 66.3840625 50.16642578 67.19488281 50.60205078 68.03027344 C52.32879367 74.13956484 49.98366061 80.3621867 47.75830078 86.07324219 C47.49509033 86.75829834 47.23187988 87.44335449 46.96069336 88.14916992 C29.78225926 131.7345337 -1.95351593 165.27823474 -44.67919922 184.57324219 C-57.55155002 189.87535464 -70.98269865 193.23198613 -84.67919922 195.57324219 C-85.94634766 195.79882812 -87.21349609 196.02441406 -88.51904297 196.25683594 C-109.95734487 199.4127281 -133.48288238 199.02547661 -154.67919922 194.57324219 C-155.47535645 194.40695312 -156.27151367 194.24066406 -157.09179688 194.06933594 C-192.22914576 186.41074122 -223.79302333 166.0606345 -245.67919922 137.57324219 C-246.49001953 136.56648437 -247.30083984 135.55972656 -248.13623047 134.52246094 C-260.83539046 118.65523849 -280.7751194 90.74432839 -279.67919922 69.57324219 C-278.68796615 66.04033045 -277.16268444 62.89427073 -275.49169922 59.63574219 C-275.04189697 58.72840332 -274.59209473 57.82106445 -274.12866211 56.88623047 C-267.26964529 43.41244875 -258.68666431 30.9027637 -248.67919922 19.57324219 C-248.22577148 19.0542334 -247.77234375 18.53522461 -247.30517578 18.00048828 C-240.64301426 10.41043052 -233.73533543 3.71179105 -225.67919922 -2.42675781 C-224.72271484 -3.17570312 -223.76623047 -3.92464844 -222.78076172 -4.69628906 C-157.25312287 -55.17492949 -63.20765483 -53.70537 0 0 Z M-172.67919922 5.57324219 C-173.78779297 6.0746875 -174.89638672 6.57613281 -176.03857422 7.09277344 C-189.10904333 13.29398489 -200.25722359 21.56029229 -210.67919922 31.57324219 C-211.63439453 32.46527344 -212.58958984 33.35730469 -213.57373047 34.27636719 C-220.6928154 41.0401877 -226.86656185 48.26768311 -232.28417969 56.46484375 C-233.25687238 57.93494773 -234.24978162 59.39178879 -235.2578125 60.83789062 C-241.59540711 69.57113318 -241.59540711 69.57113318 -243.43212891 79.80029297 C-242.04205129 84.28497237 -239.63909995 88.04402165 -236.91748047 91.83642578 C-235.19289054 94.25533997 -233.74751854 96.82657329 -232.24169922 99.38574219 C-221.07500925 116.19823067 -206.48160841 130.4625116 -189.67919922 141.57324219 C-188.70853516 142.21648437 -187.73787109 142.85972656 -186.73779297 143.52246094 C-172.29605715 152.46067017 -156.20227873 158.00120072 -139.67919922 161.57324219 C-138.54869141 161.81945312 -137.41818359 162.06566406 -136.25341797 162.31933594 C-112.63644981 166.50060625 -88.10372553 163.63016529 -65.67919922 155.57324219 C-64.44814453 155.14269531 -63.21708984 154.71214844 -61.94873047 154.26855469 C-34.68661856 144.09912622 -9.83264335 124.05220507 5.99023438 99.6171875 C6.93122112 98.17169373 7.89777941 96.74269616 8.88183594 95.32617188 C15.23154582 86.5863515 15.23154582 86.5863515 17.07373047 76.34619141 C15.68365285 71.861512 13.28070151 68.10246273 10.55908203 64.31005859 C8.8344921 61.8911444 7.3891201 59.31991108 5.88330078 56.76074219 C-9.44034454 33.70686507 -30.41683844 15.77123267 -55.67919922 4.57324219 C-56.30536133 4.29254883 -56.93152344 4.01185547 -57.57666016 3.72265625 C-67.03921843 -0.45939059 -76.57317721 -3.30347238 -86.67919922 -5.42675781 C-87.74912109 -5.65363281 -88.81904297 -5.88050781 -89.92138672 -6.11425781 C-118.18297116 -11.08940226 -146.80118885 -6.24799553 -172.67919922 5.57324219 Z " fill="#000000" transform="translate(439.67919921875,292.4267578125)"/>
<path d="M0 0 C14.27994403 10.89887473 24.38259268 26.02042511 27 44 C28.57068093 62.23735086 25.29167222 79.67855465 13.453125 94.23046875 C1.92261229 107.67137449 -13.14346086 116.52042167 -30.97802734 118.18457031 C-50.1463345 119.44462928 -66.69843429 114.17152998 -81.375 101.6875 C-94.14842903 89.4594062 -101.78067539 73.86180018 -102.40478516 56.14501953 C-102.64933306 37.77472724 -96.98316555 21.5907965 -84.25952148 8.11230469 C-61.810422 -14.60027291 -26.4026531 -17.75520881 0 0 Z M-61 34 C-66.89345447 41.75296683 -69.04455881 49.28163642 -68 59 C-65.79252338 67.97530912 -60.63179628 74.82883629 -52.9375 79.875 C-45.37841997 84.1594404 -37.88488118 85.44738609 -29.34765625 83.34765625 C-21.43525024 80.50699277 -14.56369792 75.09908565 -10 68 C-6.18101172 59.86605093 -5.53749281 51.31381331 -8.5625 42.8125 C-12.19928948 34.70065396 -18.75920301 27.46875523 -27.125 24.25 C-40.13256056 20.34557469 -51.93828586 24.05027824 -61 34 Z " fill="#000000" transform="translate(364,317)"/>
<path d="M0 0 C4.35297396 2.22933766 7.38736249 6.0905725 9.64453125 10.34375 C11.3378396 15.77734071 11.20056602 20.70344743 9.39453125 26.03125 C6.33792334 31.81697211 3.73151155 34.80750821 -2.35546875 37.34375 C-8.50924972 38.0806105 -15.77427656 38.67795142 -21.48046875 35.84375 C-26.55330107 31.43259146 -29.38341902 27.06537046 -30.35546875 20.34375 C-30.69044967 14.11310483 -28.87073439 9.69502426 -25.54296875 4.53125 C-18.89545862 -2.11626013 -8.7389719 -2.43473844 0 0 Z " fill="#000000" transform="translate(403.35546875,85.65625)"/>
<path d="M0 0 C4.75136647 2.39680042 7.6419132 6.59868821 9.6328125 11.38671875 C11.32491142 17.96710345 10.86219866 23.40835098 7.6328125 29.38671875 C4.88118754 33.65648162 2.29398025 35.43909467 -2.3671875 37.38671875 C-8.52096847 38.12357925 -15.78599531 38.72092017 -21.4921875 35.88671875 C-26.79177757 31.27837956 -30.00170106 25.85883992 -30.7421875 18.82421875 C-30.65668425 12.21603888 -27.38836915 6.35977702 -22.7421875 1.82421875 C-16.46052078 -1.97784268 -7.03266159 -1.82199318 0 0 Z " fill="#000000" transform="translate(347.3671875,85.61328125)"/>
<path d="M0 0 C0.70382812 -0.02900391 1.40765625 -0.05800781 2.1328125 -0.08789062 C7.30448433 -0.15037365 10.1253868 0.95511396 14.25 4.3125 C19.52423198 10.17275776 20.7662727 14.44867045 20.6328125 22.265625 C19.885373 28.2146333 16.89624955 31.81938994 12.5625 35.75 C8.51380453 38.48560505 5.27829831 38.56077556 0.5 38.625 C-0.20382812 38.65400391 -0.90765625 38.68300781 -1.6328125 38.71289062 C-6.80448433 38.77537365 -9.6253868 37.66988604 -13.75 34.3125 C-19.02423198 28.45224224 -20.2662727 24.17632955 -20.1328125 16.359375 C-19.385373 10.4103667 -16.39624955 6.80561006 -12.0625 2.875 C-8.01380453 0.13939495 -4.77829831 0.06422444 0 0 Z " fill="#000000" transform="translate(277.75,84.6875)"/>
</svg>
